<?xml version="1.0" encoding="UTF-8"?>
<svg width="226px" height="226px" viewBox="0 0 226 226" version="1.1" xmlns="http://www.w3.org/2000/svg" xmlns:xlink="http://www.w3.org/1999/xlink">
    <title>bulan keju tidur</title>
    <defs>
        <circle id="path-1" cx="113" cy="113" r="113"></circle>
        <circle id="path-3" cx="28" cy="28" r="28"></circle>
        <circle id="path-5" cx="24.5" cy="24.5" r="24.5"></circle>
        <circle id="path-7" cx="16.5" cy="16.5" r="16.5"></circle>
        <circle id="path-9" cx="21" cy="21" r="21"></circle>
        <circle id="path-11" cx="28" cy="28" r="28"></circle>
    </defs>
    <g id="Page-1" stroke="none" stroke-width="1" fill="none" fill-rule="evenodd">
        <g id="ilustration" transform="translate(-1081.000000, -66.000000)">
            <g id="bulan-keju-tidur" transform="translate(1081.000000, 66.000000)">
                <g id="Mask">
                    <g id="Path-5-+-Path-2-+-Path-3-+-Path-4-+-Path-6-Mask">
                        <mask id="mask-2" fill="white">
                            <use xlink:href="#path-1"></use>
                        </mask>
                        <use id="Mask" fill="#FFAC0E" xlink:href="#path-1"></use>
                        <g id="Path-5" mask="url(#mask-2)">
                            <g transform="translate(161.000000, 25.000000)">
                                <mask id="mask-4" fill="white">
                                    <use xlink:href="#path-3"></use>
                                </mask>
                                <use id="Mask" stroke="none" fill="#F89B0D" fill-rule="evenodd" xlink:href="#path-3"></use>
                                <path d="M-5.98061263,34.4875532 C-11.4469659,20.145922 -5.38875348,9.88795707 12.1940247,3.71365854 C8.91654898,16.4169362 8.09718006,24.9402087 9.7359179,29.2834758 C12.1940247,35.7983766 17.0011573,45.3041629 36.5005787,45.3041629 C49.5001929,45.3041629 57.1793429,42.7377174 59.5380287,37.6048264 C44.5301538,68.3343789 28.7488191,77.7994367 12.1940247,66 C-12.638167,48.3008449 2.21891729,56 -5.98061263,34.4875532 Z" id="Path-5" stroke="none" fill="#F3920F" fill-rule="evenodd" mask="url(#mask-4)"></path>
                            </g>
                        </g>
                        <g id="Path-2" mask="url(#mask-2)">
                            <g transform="translate(48.000000, 42.000000)">
                                <mask id="mask-6" fill="white">
                                    <use xlink:href="#path-5"></use>
                                </mask>
                                <use id="Mask" stroke="none" fill="#F89B0D" fill-rule="evenodd" xlink:href="#path-5"></use>
                                <path d="M16,0 C12,5.91048671 10,11.4714417 10,16.682865 C10,24.5 13.8271814,34.7528001 22.2885954,39 C27.929538,41.8314666 35.1666729,43.2647462 44,43.2998389 C31.2420066,61.0444882 15.5614122,61.0444882 -3.0417833,43.2998389 C-21.6449788,25.5551897 -15.2977177,11.12191 16,0 Z" id="Path-2" stroke="none" fill="#F3920F" fill-rule="evenodd" mask="url(#mask-6)"></path>
                            </g>
                        </g>
                        <g id="Path-3" mask="url(#mask-2)">
                            <g transform="translate(25.000000, 105.000000)">
                                <mask id="mask-8" fill="white">
                                    <use xlink:href="#path-7"></use>
                                </mask>
                                <use id="Mask" stroke="none" fill="#F89B0D" fill-rule="evenodd" xlink:href="#path-7"></use>
                                <path d="M3.75500906,5.47043785 C3.48024695,10.9428599 4.1922728,15.4633683 5.89108663,19.0319632 C8.43930736,24.3848554 11.9427074,26.1160244 16.5,27.5141908 C19.5381951,28.4463017 23.3909946,29.2637939 28.0583987,29.9666676 C13.9562925,40.1534881 3.52778107,40.6791946 -3.22713575,31.543787 C-4.2203258,30.2005883 -5.0072532,28.8573895 -5.58791795,27.5141908 C-7.83363226,22.3193849 -4.71932326,14.9714673 3.75500906,5.47043785 Z" id="Path-3" stroke="none" fill="#F3920F" fill-rule="evenodd" mask="url(#mask-8)"></path>
                            </g>
                        </g>
                        <g id="Path-4" mask="url(#mask-2)">
                            <g transform="translate(147.000000, 121.000000)">
                                <mask id="mask-10" fill="white">
                                    <use xlink:href="#path-9"></use>
                                </mask>
                                <use id="Mask" stroke="none" fill="#F89B0D" fill-rule="evenodd" xlink:href="#path-9"></use>
                                <path d="M9.22661241,2.18380896 C7.04000707,10.7031689 6.50187549,16.9752326 7.61221767,21 C9.27773094,27.0371511 11.9650206,32.3693052 23.2194204,34.7819813 C30.7223536,36.390432 38.3927099,32.8485911 46.2304894,24.1564584 C28.8612822,57.4988215 14.5401664,66.1715371 3.267142,50.1746051 C-8.00588241,34.177673 -6.01939228,18.180741 9.22661241,2.18380896 Z" id="Path-4" stroke="none" fill="#F3920F" fill-rule="evenodd" mask="url(#mask-10)"></path>
                            </g>
                        </g>
                        <g id="Path-6" mask="url(#mask-2)">
                            <g transform="translate(35.000000, 175.000000)">
                                <mask id="mask-12" fill="white">
                                    <use xlink:href="#path-11"></use>
                                </mask>
                                <use id="Mask" stroke="none" fill="#F89B0D" fill-rule="evenodd" xlink:href="#path-11"></use>
                                <path d="M12.0290771,4.6655936 C7.29759848,21.2611132 7.77654933,32.7904475 13.4659296,39.2535964 C22,48.9483198 41.9683946,44.5800504 48.9841973,41.9168234 C53.6613991,40.1413387 56.5206471,38.4710931 57.5619413,36.9060866 C72.5358743,69.4826656 61.9302107,78.7151292 25.7449507,64.6034776 C-10.4403094,50.4918259 -15.0122673,30.5125312 12.0290771,4.6655936 Z" id="Path-6" stroke="none" fill="#F3920F" fill-rule="evenodd" mask="url(#mask-12)"></path>
                            </g>
                        </g>
                    </g>
                    <path d="M74.5660935,103.341677 C76.4531238,106.008344 79.5650549,107.341677 83.9018868,107.341677 C88.2387187,107.341677 91.1379611,106.008344 92.599614,103.341677" id="Path-8" stroke="#3E39B8" stroke-width="4" stroke-linecap="round"></path>
                    <path d="M133.566093,103.341677 C135.453124,106.008344 138.565055,107.341677 142.901887,107.341677 C147.238719,107.341677 150.137961,106.008344 151.599614,103.341677" id="Path-8" stroke="#3E39B8" stroke-width="4" stroke-linecap="round"></path>
                    <path d="M113.014059,134 C105.286681,134 99,127.710515 99,119.97969 C99,118.886518 99.8853742,118 100.978059,118 C102.070744,118 102.956867,118.886518 102.956867,119.97969 C102.956867,125.527914 107.468308,130.041368 113.014059,130.041368 C118.559061,130.041368 123.070502,125.527914 123.070502,119.97969 C123.070502,118.886518 123.956625,118 125.04931,118 C126.141995,118 127.027369,118.886518 127.027369,119.97969 C127.027369,127.710515 120.741437,134 113.014059,134" id="Fill-125" fill="#3E39B8"></path>
                </g>
                <path d="M-8,66 C-8,138.901587 51.098413,198 124,198 C151.50791,198 177.05056,189.585718 198.194544,175.19056 C177.057162,210.987713 138.082766,235 93.5,235 C26.3974029,235 -28,180.602597 -28,113.5 C-28,87.6565268 -19.9313428,63.6975895 -6.17574205,44.0049018 C-7.37556232,51.1585377 -8,58.5063462 -8,66 Z" id="Combined-Shape" fill-opacity="0.15" fill="#3E39B8" transform="translate(85.097771, 139.502951) rotate(17.000000) translate(-85.097771, -139.502951) "></path>
            </g>
        </g>
    </g>
</svg>