<?xml version="1.0" encoding="UTF-8"?>
<svg width="198px" height="221px" viewBox="0 0 198 221" version="1.1" xmlns="http://www.w3.org/2000/svg" xmlns:xlink="http://www.w3.org/1999/xlink">
    <title>Set Up Complete Image</title>
    <g id="Page-1" stroke="none" stroke-width="1" fill="none" fill-rule="evenodd">
        <g id="Set-Up-Complete-Image" transform="translate(1.000000, 1.000000)">
            <path d="M27.2338737,145.536483 C26.9772571,144.76629 26.8622048,144.340907 26.8577027,144.323391 L27.5820318,144.127715 C27.5830323,144.132219 27.6970841,144.552597 27.9456971,145.299269 L27.2338737,145.536483" id="Fill-2" fill="#F5F4F3"></path>
            <path d="M118.921868,37.3953127 L118.895008,36.4265557 C119.890631,36.3942422 120.890432,36.3871333 121.895008,36.4045825 L121.880683,37.3739858 C120.889835,37.3571828 119.903763,37.3642918 118.921868,37.3953127 M127.788284,37.3953127 C126.825423,37.2946584 125.852006,37.2116187 124.895008,37.1477032 L124.962444,36.3953127 C125.932342,36.4597314 126.918659,36.544281 127.895008,36.6459418 L127.788284,37.3953127 M113.014938,37.3953127 L112.895008,36.6743035 C113.863807,36.5636775 114.846061,36.4695485 115.814275,36.3953127 L115.895008,37.1197183 C114.939665,37.1934689 113.970866,37.2856572 113.014938,37.3953127 M133.704257,38.3953127 C132.774777,38.24823 131.82969,38.1128978 130.895008,37.9929626 L131.050499,37.3953127 C131.99732,37.5164634 132.953968,37.6534164 133.895008,37.802525 L133.704257,38.3953127 M107.104686,38.3953127 L106.895008,37.8282823 C107.829916,37.6700594 108.781529,37.5243072 109.722197,37.3953127 L109.895008,37.9681887 C108.965861,38.0956244 108.026921,38.239428 107.104686,38.3953127 M139.626257,39.3953127 C138.716992,39.216507 137.798519,39.0477117 136.895008,38.8934142 L137.132108,38.3953127 C138.045401,38.5516813 138.974809,38.7225477 139.895008,38.9034245 L139.626257,39.3953127 M101.190742,40.3953127 L100.895008,39.4646654 C101.797199,39.0868582 102.71899,38.7275452 103.633863,38.3953127 L103.895008,39.3398305 C102.991665,39.6674395 102.08198,40.0227896 101.190742,40.3953127 M144.568092,42.3953127 C143.687846,42.0089985 142.788539,41.6301494 141.895008,41.2687186 L142.199398,40.3953127 C143.101015,40.7592318 144.007253,41.1418135 144.895008,41.5306159 L144.568092,42.3953127 M96.2753226,42.3953127 L95.8950081,41.6100758 C96.7721194,41.186943 97.6643733,40.7777596 98.5467262,40.3953127 L98.8950081,41.1950802 C98.0231386,41.5728773 97.1419505,41.9768297 96.2753226,42.3953127 M150.509527,44.3953127 C149.657042,43.9831602 148.77719,43.5733006 147.895008,43.1777718 L148.256615,42.3953127 C149.146949,42.7942809 150.034371,43.2075798 150.895008,43.6231717 L150.509527,44.3953127 M91.3562278,45.3953127 L90.8950081,44.722165 C91.7404788,44.2655176 92.6043036,43.8188545 93.4639839,43.3953127 L93.8950081,44.0842249 C93.0465771,44.5030373 92.1922254,44.9439201 91.3562278,45.3953127 M155.446189,47.3953127 C154.615874,46.9564179 153.757803,46.5191171 152.895008,46.0951001 L153.319024,45.3953127 C154.190677,45.8235805 155.057016,46.265132 155.895008,46.7082776 L155.446189,47.3953127 M86.2565076,48.3953127 L85.8950081,47.8094492 C86.4392837,47.3265733 86.9965279,46.8504985 87.5517457,46.3953127 L87.8950081,46.9967215 C87.3458693,47.4470494 86.7951094,47.9172947 86.2565076,48.3953127 M160.548475,50.3953127 C160.008174,49.9290094 159.452194,49.4656794 158.895008,49.0182066 L159.223852,48.3953127 C159.787068,48.8472453 160.349078,49.3155307 160.895008,49.7867894 L160.548475,50.3953127 M81.3107667,52.3953127 L80.8950081,51.8813794 C81.420993,51.375669 81.9595513,50.8758974 82.496014,50.3953127 L82.8950081,50.925235 C82.364413,51.4003378 81.8313032,51.8950843 81.3107667,52.3953127 M165.496914,54.3953127 C164.97413,53.9052033 164.43519,53.4178866 163.895008,52.9473257 L164.276118,52.3953127 C164.8221,52.8714588 165.366425,53.3638954 165.895008,53.8591246 L165.496914,54.3953127 M77.3659041,56.3953127 L76.8950081,55.9421128 C77.4003493,55.4192569 77.919643,54.8985778 78.4393726,54.3953127 L78.8950081,54.8637498 C78.3805106,55.362226 77.8660131,55.877681 77.3659041,56.3953127 M169.438543,58.3953127 C168.936387,57.8838488 168.416991,57.3745896 167.895008,56.8807624 L168.333801,56.3953127 C168.861818,56.8939899 169.386818,57.409422 169.895008,57.9266178 L169.438543,58.3953127 M73.4226211,60.3953127 L72.8950081,59.9949773 C73.3801747,59.4563062 73.8799465,58.9180542 74.3810875,58.3953127 L74.8950081,58.8111584 C74.3984312,59.3288696 73.9032236,59.8616719 73.4226211,60.3953127 M173.37323,62.3953127 C172.892286,61.8620355 172.395008,61.3317069 171.895008,60.8186488 L172.399999,60.3953127 C172.90499,60.9138468 173.40862,61.4500726 173.895008,61.9896682 L173.37323,62.3953127 M69.4827063,65.3953127 L68.8950081,65.0411502 C69.3596886,64.4879241 69.8392657,63.9338838 70.3202844,63.3953127 L70.8950081,63.763723 C70.4183142,64.2978162 69.9430619,64.8465645 69.4827063,65.3953127 M177.299119,67.3953127 C176.842529,66.8422162 176.370462,66.2927746 175.895008,65.7607949 L176.474936,65.3953127 C176.956193,65.9329776 177.434065,66.4893228 177.895008,67.0481046 L177.299119,67.3953127 M66.5464076,71.3953127 L65.8950081,70.9288584 C66.3331761,70.0849404 66.7911913,69.2320636 67.2553135,68.3953127 L67.8950081,68.8838653 C67.4349572,69.7134492 66.9810132,70.5585617 66.5464076,71.3953127 M180.212489,72.3953127 C179.788136,71.5423192 179.345492,70.6899185 178.895008,69.8618213 L179.562894,69.3953127 C180.018081,70.2334869 180.465951,71.095372 180.895008,71.9584425 L180.212489,72.3953127 M63.6160707,76.3953127 L62.8950081,75.9881446 C63.3097547,75.1250424 63.7440187,74.2525395 64.1847886,73.3953127 L64.8950081,73.8242198 C64.4580333,74.6743961 64.0275644,75.539261 63.6160707,76.3953127 M183.110503,77.3953127 C182.721981,76.518587 182.312799,75.6401114 181.895008,74.7843852 L182.666314,74.3953127 C183.088695,75.2609553 183.502469,76.1493473 183.895008,77.0365726 L183.110503,77.3953127 M60.6937283,81.3953127 L59.8950081,81.0444898 C60.2853513,80.1587202 60.6931466,79.2671423 61.1061774,78.3953127 L61.8950081,78.7682072 C61.4854677,79.6330668 61.0805811,80.5170939 60.6937283,81.3953127 M184.989227,83.3953127 C184.64429,82.4966978 184.275717,81.5928887 183.895008,80.7092796 L184.788014,80.3953127 C185.173194,81.2893104 185.545599,82.202931 185.895008,83.1107802 L184.989227,83.3953127 M58.7820084,87.3953127 L57.8950081,87.0981973 C58.2569848,86.1912742 58.6309225,85.2901204 59.0174507,84.3953127 L59.8950081,84.7137742 C59.5116276,85.6016588 59.1408375,86.4953127 58.7820084,87.3953127 M187.367089,89.3953127 C187.222419,88.4857505 187.063609,87.557179 186.895008,86.6366721 L187.416763,86.3953127 C187.587539,87.3256122 187.748163,88.2639763 187.895008,89.1833311 L187.367089,89.3953127 M56.3900202,92.3953127 L55.8950081,92.1513073 C56.0577188,91.2276549 56.2273095,90.3086064 56.4041241,89.3953127 L56.8950081,89.6611865 C56.7199135,90.5669988 56.5513549,91.4785661 56.3900202,92.3953127 M188.272739,94.3953127 C188.157613,93.4425826 188.030722,92.4910101 187.895008,91.5677997 L188.512655,91.3953127 C188.64963,92.3289418 188.778201,93.2897753 188.895008,94.2529241 L188.272739,94.3953127 M55.4529791,98.3953127 L54.8950081,98.2033682 C55.0357404,97.2627245 55.1841004,96.326706 55.3404696,95.3953127 L55.8950081,95.6092267 C55.7397831,96.5336823 55.5921859,97.4621849 55.4529791,98.3953127 M189.147012,100.395313 C189.076872,99.4316337 188.992203,98.4568241 188.895008,97.4984175 L189.642002,97.3953127 C189.739698,98.3636782 189.824868,99.347861 189.895008,100.320913 L189.147012,100.395313 M54.5302417,104.395313 L53.8950081,104.256941 C54.0073099,103.309848 54.1311847,102.347638 54.2636322,101.395313 L54.8950081,101.556359 C54.7642752,102.499382 54.6425435,103.445313 54.5302417,104.395313 M188.96564,106.395313 C188.958825,105.40406 188.935281,104.406247 188.895008,103.430502 L189.823137,103.395313 C189.864029,104.381197 189.888193,105.388553 189.895008,106.389348 L188.96564,106.395313 M53.6290298,110.395313 L52.8950081,110.310756 C52.9736709,109.336593 53.0631497,108.364191 53.1634447,107.395313 L53.8950081,107.50277 C53.7956964,108.464015 53.7072008,109.428783 53.6290298,110.395313 M189.746459,112.395313 L188.895008,112.335538 C188.958184,111.354279 189.0077,110.364735 189.042418,109.395313 L189.895008,109.427863 C189.860859,110.406163 189.810774,111.404585 189.746459,112.395313 M52.7644977,116.395313 L51.8950081,116.366181 C51.9257506,115.374504 51.9698341,114.384017 52.0266787,113.395313 L52.8950081,113.447631 C52.8387436,114.428012 52.7958202,115.41077 52.7644977,116.395313 M189.59894,118.395313 L188.895008,118.273541 C189.004909,117.313355 189.103914,116.344429 189.189182,115.395313 L189.895008,115.490865 C189.809267,116.449304 189.709314,117.425804 189.59894,118.395313 M51.9569606,122.395313 C51.9219168,121.407895 51.9012659,120.400705 51.8950081,119.401304 L52.8336815,119.395313 C52.8399393,120.386924 52.8605901,121.385726 52.8950081,122.364755 L51.9569606,122.395313 M188.495499,124.395313 L187.895008,124.214666 C188.035819,123.282 188.16967,122.333173 188.291242,121.395313 L188.895008,121.551142 C188.772208,122.49766 188.637947,123.454566 188.495499,124.395313 M52.1161871,128.395313 C52.0311584,127.429131 51.9570843,126.441125 51.8950081,125.459017 L52.6753941,125.395313 C52.7369487,126.370342 52.8110227,127.35009 52.8950081,128.308014 L52.1161871,128.395313 M186.41804,130.395313 L185.895008,130.157382 C186.05968,129.247037 186.218911,128.317726 186.367986,127.395313 L186.895008,127.60968 C186.744845,128.539566 186.584163,129.476347 186.41804,130.395313 M53.2334078,134.395313 C53.1109223,133.44259 52.9969303,132.473011 52.8950081,131.514476 L53.5592906,131.395313 C53.6603188,132.34571 53.7734167,133.30657 53.8950081,134.251155 L53.2334078,134.395313 M184.819648,136.395313 L183.895008,136.101984 C184.263947,135.207046 184.6224,134.296578 184.96185,133.395313 L185.895008,133.66621 C185.553593,134.574952 185.191207,135.492897 184.819648,136.395313 M54.3215596,140.395313 C54.1707348,139.457452 54.0273726,138.508048 53.8950081,137.571342 L54.4715989,137.395313 C54.602785,138.323939 54.7453616,139.26584 54.8950081,140.19562 L54.3215596,140.395313 M182.719633,141.395313 L181.895008,141.046112 C182.290203,140.181784 182.682396,139.289705 183.060774,138.395313 L183.895008,138.722543 C183.513627,139.624451 183.118432,140.523468 182.719633,141.395313 M56.3920246,145.395313 C56.2189814,144.480693 56.0519053,143.54938 55.8950081,142.626702 L56.4018526,142.395313 C56.5576968,143.309357 56.723369,144.232611 56.8950081,145.139749 L56.3920246,145.395313 M179.635337,147.395313 L178.895008,146.989592 C179.31861,146.140205 179.739428,145.267467 180.14466,144.395313 L180.895008,144.779434 C180.486436,145.658593 180.062278,146.538337 179.635337,147.395313 M29.0886138,151.395313 C28.6676547,150.503186 28.2656416,149.604691 27.8950081,148.726459 L28.715612,148.395313 C29.0821011,149.262545 29.4787855,150.149462 29.8950081,151.031746 L29.0886138,151.395313 M58.0030043,151.395313 C57.6219912,150.500677 57.2486239,149.58816 56.8950081,148.683719 L57.795932,148.395313 C58.1469992,149.292256 58.5165436,150.196697 58.8950081,151.084411 L58.0030043,151.395313 M177.561848,152.395313 L176.895008,151.930949 C177.343041,151.09936 177.787428,150.246448 178.217748,149.395313 L178.895008,149.837169 C178.461562,150.695411 178.013529,151.556023 177.561848,152.395313 M32.1946316,156.395313 C31.7460033,155.537582 31.3086714,154.665742 30.8950081,153.805072 L31.6093707,153.395313 C32.0181926,154.245989 32.4512211,155.108423 32.8950081,155.957335 L32.1946316,156.395313 M60.0991077,157.395313 C59.6891516,156.52515 59.2838807,155.631768 58.8950081,154.740707 L59.7014503,154.395313 C60.0873947,155.278827 60.488566,156.164663 60.8950081,157.026698 L60.0991077,157.395313 M173.495991,157.395313 L172.895008,157.045544 C173.358399,156.510628 173.825229,155.955586 174.281249,155.395313 L174.895008,155.730994 C174.434074,156.295695 173.963804,156.855566 173.495991,157.395313 M35.2796618,161.395313 C34.8088098,160.847016 34.3429404,160.282687 33.8950081,159.71916 L34.5248038,159.395313 C34.9677535,159.952828 35.4291387,160.511144 35.8950081,161.05383 L35.2796618,161.395313 M170.436685,162.395313 L169.895008,162.003488 C170.376446,161.482844 170.863021,160.941968 171.340724,160.395313 L171.895008,160.773513 C171.41357,161.32471 170.922792,161.87054 170.436685,162.395313 M63.1793219,162.395313 C62.740324,161.536409 62.3078622,160.663414 61.8950081,159.799227 L62.621043,159.395313 C63.030629,160.252456 63.4598229,161.118992 63.8950081,161.970264 L63.1793219,162.395313 M39.3534193,166.395313 C38.8566904,165.861869 38.3660362,165.315626 37.8950081,164.771861 L38.4515502,164.395313 C38.9179053,164.933711 39.4034193,165.47376 39.8950081,166.001836 L39.3534193,166.395313 M166.382399,166.395313 L165.895008,165.957347 C166.396236,165.450005 166.901034,164.924787 167.394673,164.395313 L167.895008,164.819233 C167.396905,165.353814 166.88809,165.883714 166.382399,166.395313 M66.2494838,167.395313 C65.7865682,166.553595 65.3308138,165.699946 64.8950081,164.858228 L65.5517856,164.395313 C65.9840107,165.231065 66.4361846,166.077556 66.8950081,166.913308 L66.2494838,167.395313 M162.33106,170.395313 L161.895008,169.907572 C162.417326,169.413205 162.938356,168.904701 163.445652,168.395313 L163.895008,168.869799 C163.383849,169.383605 162.85724,169.896969 162.33106,170.395313 M43.4204619,170.395313 C42.9047469,169.884473 42.3912454,169.357322 41.8950081,168.828453 L42.3859333,168.395313 C42.8773012,168.917742 43.3846053,169.439314 43.8950081,169.945001 L43.4204619,170.395313 M69.3099378,172.395313 C68.8290847,171.848862 68.3525942,171.293081 67.8950081,170.74298 L68.4912272,170.395313 C68.9483285,170.944197 69.4160939,171.490242 69.8950081,172.033852 L69.3099378,172.395313 M157.28181,174.395313 L156.895008,173.852588 C157.429974,173.379608 157.967845,172.889539 158.49368,172.395313 L158.895008,172.924643 C158.364608,173.423026 157.821756,173.918176 157.28181,174.395313 M47.4815507,175.395313 C46.9462142,174.906243 46.4121474,174.400496 45.8950081,173.891594 L46.3253932,173.395313 C46.837031,173.897905 47.3651732,174.398243 47.8950081,174.882353 L47.4815507,175.395313 M73.3637726,177.395313 C72.864004,176.861231 72.3744158,176.32424 71.8950081,175.783924 L72.4378124,175.395313 C72.9135181,175.931472 73.3994042,176.464307 73.8950081,176.994232 L73.3637726,177.395313 M152.235468,178.395313 L151.895008,177.790877 C152.444423,177.3395 152.997872,176.870087 153.539623,176.395313 L153.895008,176.987562 C153.348013,177.466236 152.78932,177.940036 152.235468,178.395313 M52.5386089,178.395313 C51.98421,177.930463 51.4310359,177.448397 50.8950081,176.963462 L51.268962,176.395313 C51.7996825,176.875466 52.346733,177.352271 52.8950081,177.812338 L52.5386089,178.395313 M147.338925,181.395313 L146.895008,180.718414 C147.738925,180.293336 148.591151,179.847966 149.427946,179.395313 L149.895008,180.060245 C149.051091,180.516541 148.190557,180.965552 147.338925,181.395313 M77.4115895,181.395313 C76.8965661,180.875432 76.3908906,180.352132 75.8950081,179.824983 L76.3900003,179.395313 C76.8823217,179.917758 77.3844361,180.437211 77.8950081,180.953671 L77.4115895,181.395313 M57.4409863,182.395313 C56.590738,181.962741 55.7339356,181.508079 54.8950081,181.04417 L55.3776298,180.395313 C56.2076198,180.854085 57.054889,181.304123 57.8950081,181.732071 L57.4409863,182.395313 M142.272418,184.395313 L141.895008,183.636131 C142.765505,183.236356 143.639507,182.819198 144.492476,182.395313 L144.895008,183.142159 C144.034443,183.569969 143.151678,183.991612 142.272418,184.395313 M62.5150393,185.395313 C61.6399419,184.993303 60.7589988,184.569517 59.8950081,184.136798 L60.3030362,183.395313 C61.1570892,183.823565 62.0292638,184.242884 62.8950081,184.640427 L62.5150393,185.395313 M81.453819,185.395313 C80.9251675,184.889799 80.4055639,184.380315 79.8950081,183.867302 L80.3478302,183.395313 C80.8545083,183.903914 81.3702343,184.409869 81.8950081,184.911854 L81.453819,185.395313 M136.208941,187.395313 L135.895008,186.539482 C136.783619,186.174009 137.679167,185.788946 138.556215,185.395313 L138.895008,186.240124 C138.009866,186.638043 137.106224,187.026779 136.208941,187.395313 M68.5850621,187.395313 C67.6870282,187.029721 66.7820552,186.64201 65.8950081,186.243853 L66.2327105,185.395313 C67.1105054,185.789168 68.0062263,186.173193 68.8950081,186.534483 L68.5850621,187.395313 M130.145488,188.395313 L129.895008,187.908698 C130.800766,187.747397 131.717465,187.574574 132.618041,187.395313 L132.895008,187.877183 C131.985219,188.0578 131.059883,188.232317 130.145488,188.395313 M73.6502395,189.395313 C72.731637,189.233835 71.8049717,189.061067 70.8950081,188.882483 L71.1668453,188.395313 C72.067594,188.572528 72.9861965,188.743585 73.8950081,188.903694 L73.6502395,189.395313 M86.4919886,189.395313 C85.9514141,188.904101 85.4188077,188.409236 84.8950081,187.91072 L85.3089314,187.395313 C85.8293759,187.890177 86.3577886,188.381389 86.8950081,188.869405 L86.4919886,189.395313 M125.083013,190.395313 L124.895008,189.836366 C125.817153,189.70054 126.754293,189.552505 127.681052,189.395313 L127.895008,189.950063 C126.959599,190.108399 126.013809,190.257961 125.083013,190.395313 M79.7103927,190.395313 C78.7642389,190.257302 77.8169312,190.109653 76.8950081,189.956222 L77.1038543,189.395313 C78.0177004,189.547202 78.9569312,189.693694 79.8950081,189.830548 L79.7103927,190.395313 M119.022161,191.395313 L118.895008,190.744435 C119.845463,190.639172 120.803466,190.52119 121.742889,190.395313 L121.895008,191.04312 C120.947456,191.170313 119.980745,191.288734 119.022161,191.395313 M85.7683621,191.395313 C84.8098029,191.288892 83.8425294,191.171038 82.8950081,191.044829 L83.0448919,190.395313 C83.9854419,190.520203 84.9440012,190.636737 85.8950081,190.742718 L85.7683621,191.395313 M112.985687,192.395313 L112.895008,191.666309 C113.851521,191.584278 114.81564,191.493945 115.789119,191.395313 L115.895008,192.121875 C114.916264,192.221485 113.946295,192.312305 112.985687,192.395313 M106.945806,192.395313 L106.895008,191.576733 C107.863112,191.525914 108.840667,191.464712 109.828263,191.395313 L109.895008,192.212253 C108.902687,192.282744 107.919225,192.3434 106.945806,192.395313 M97.8729887,192.395313 C96.8690212,192.370328 95.876361,192.333445 94.8950081,192.286449 L94.9378568,191.395313 C95.9126634,191.442309 96.8981821,191.478002 97.8950081,191.502987 L97.8729887,192.395313 M100.90099,192.395313 L100.895008,191.450133 C101.876663,191.443202 102.867889,191.424928 103.870482,191.395313 L103.895008,192.340492 C102.886434,192.370108 101.888029,192.389011 100.90099,192.395313 M91.1337553,193.395313 C90.4771537,192.982238 89.8295543,192.567269 89.1892692,192.14851 C89.1330051,192.143299 89.0767411,192.138089 89.020477,192.132878 L89.0317298,192.045242 L88.8950081,191.955237 L89.0677388,191.769069 L89.1116248,191.426104 C89.1960209,191.434157 89.2798543,191.441736 89.3642504,191.449316 L89.4148881,191.395313 L89.5178513,191.462579 C90.3016098,191.532215 91.0943705,191.595218 91.8950081,191.651116 L91.8252407,192.358837 C91.4758408,192.334678 91.1275663,192.309098 90.7809796,192.282096 C91.0656758,192.464001 91.3514972,192.645431 91.638444,192.825914 L91.1337553,193.395313 M95.5585859,197.395313 C94.9965391,196.934608 94.4421475,196.469469 93.8950081,196.000881 L94.2415029,195.395313 C94.7854191,195.861437 95.3365875,196.323127 95.8950081,196.781368 L95.5585859,197.395313 M101.432828,200.395313 C100.576366,199.949613 99.7306246,199.500319 98.8950081,199.047431 L99.3708866,198.395313 C100.201738,198.846661 101.042715,199.292874 101.895008,199.735492 L101.432828,200.395313 M183.069396,200.395313 C182.734784,199.54837 182.339387,198.668919 181.895008,197.779601 L182.689343,197.395313 C183.144934,198.30611 183.550364,199.209361 183.895008,200.078943 L183.069396,200.395313 M106.473759,203.395313 C105.60416,202.966052 104.744576,202.532505 103.895008,202.09467 L104.329808,201.395313 C105.175252,201.830468 106.030122,202.261336 106.895008,202.688453 L106.473759,203.395313 M111.510662,206.395313 C110.629237,205.982428 109.757158,205.565621 108.895008,205.143772 L109.293373,204.395313 C110.150849,204.814921 111.018256,205.230047 111.895008,205.640131 L111.510662,206.395313 M184.177513,206.395313 C184.154568,205.498532 184.058966,204.549069 183.895008,203.572679 L184.596729,203.395313 C184.769769,204.420288 184.869674,205.420093 184.895008,206.36663 L184.177513,206.395313 M117.544321,208.395313 C116.651927,208.000352 115.768823,207.599532 114.895008,207.194609 L115.257888,206.395313 C116.128219,206.798477 117.006678,207.196953 117.895008,207.590742 L117.544321,208.395313 M122.576572,211.395313 C121.674434,211.017896 120.780965,210.634343 119.895008,210.246494 L120.226158,209.395313 C121.106913,209.781934 121.996915,210.163033 122.895008,210.539222 L122.576572,211.395313 M183.636594,212.395313 L182.895008,211.926271 C183.393106,211.141224 183.782921,210.289588 184.054505,209.395313 L184.895008,209.649986 C184.600598,210.619028 184.17742,211.542509 183.636594,212.395313 M128.612642,213.395313 C127.703306,213.041915 126.796852,212.678808 125.895008,212.30664 L126.19351,211.395313 C127.089591,211.766186 127.991435,212.127352 128.895008,212.477513 L128.612642,213.395313 M133.652107,214.395313 C132.731731,214.232917 131.812506,214.064634 130.895008,213.891158 L131.15345,213.395313 C132.066344,213.568097 132.980388,213.73534 133.895008,213.896698 L133.652107,214.395313 M179.181639,216.395313 L178.895008,215.733167 C179.49152,215.327239 180.038724,214.877604 180.520184,214.395313 L180.895008,214.984109 C180.385888,215.493529 179.80942,215.968284 179.181639,216.395313 M139.691091,216.395313 C138.760792,216.249308 137.828188,216.096582 136.895008,215.937508 L137.11563,215.395313 C138.04305,215.554013 138.969893,215.706366 139.895008,215.85125 L139.691091,216.395313 M145.733158,217.395313 C144.790962,217.269344 143.844719,217.135223 142.895008,216.993356 L143.074777,216.395313 C144.01813,216.536364 144.95917,216.669263 145.895008,216.794823 L145.733158,217.395313 M173.092975,218.395313 L172.895008,217.872406 C173.848586,217.73318 174.765908,217.572836 175.621653,217.395313 L175.895008,217.904976 C175.014517,218.08751 174.071298,218.252149 173.092975,218.395313 M151.779825,218.395313 C150.825782,218.296676 149.863595,218.18804 148.895008,218.068949 L149.030552,217.395313 C149.992158,217.513494 150.947364,217.621222 151.895008,217.719858 L151.779825,218.395313 M166.964667,219.395313 L166.895008,218.655085 C167.886618,218.588286 168.855984,218.500706 169.77735,218.395313 L169.895008,219.131087 C168.958423,219.23846 167.972081,219.32703 166.964667,219.395313 M157.836162,219.395313 C156.870489,219.338351 155.880689,219.266621 154.895008,219.183287 L154.979159,218.395313 C155.955424,218.478646 156.936397,218.549321 157.895008,218.606283 L157.836162,219.395313 M162.550716,219.395313 C162.004392,219.395313 161.452091,219.389423 160.895008,219.376988 L160.912342,218.395313 C161.920113,218.41691 162.908756,218.419527 163.880065,218.401203 L163.895008,219.382878 C163.450896,219.391386 163.002599,219.395313 162.550716,219.395313" id="Fill-3" fill="#F5F4F3"></path>
            <path d="M75.3367291,171.071464 C73.6004402,171.071464 72.0337284,171.78911 70.9102179,172.941647 C54.6443275,163.512661 45.0079493,152.627365 42.2526974,140.542488 C38.9461951,126.037934 47.0358706,114.787809 47.1179079,114.675708 L45.9093588,113.785907 L44.7018102,112.894105 C44.3336429,113.393054 35.7242312,125.298268 39.3148626,141.158543 C42.2461945,154.105695 52.3622907,165.65559 69.3985311,175.535982 C69.239959,176.083475 69.1504183,176.661495 69.1504183,177.260534 C69.1504183,180.678611 71.9201768,183.449605 75.3367291,183.449605 C78.7532814,183.449605 81.5230398,180.678611 81.5230398,177.260534 C81.5230398,173.842458 78.7532814,171.071464 75.3367291,171.071464" id="Fill-5" fill="#F4BF63"></path>
            <path d="M168.512563,125.039536 C165.745306,110.475428 158.331938,101.68902 152.385736,96.7986188 C145.458589,91.09999 139.097199,89.3429086 138.830077,89.2708438 L138.047221,92.169953 C138.107749,92.1864678 144.148994,93.874487 150.587419,99.2062857 C158.397468,105.675108 163.39824,114.450005 165.501695,125.31128 C163.093101,126.158042 161.363315,128.447102 161.363315,131.146532 C161.363315,134.564608 164.132573,137.335602 167.549126,137.335602 C170.965678,137.335602 173.735436,134.564608 173.735436,131.146532 C173.735436,128.057252 171.470407,125.503453 168.512563,125.039536" id="Fill-6" fill="#F4BF63"></path>
            <path d="M67.2505551,131.542889 C67.2505551,133.050245 66.0295004,134.271845 64.523316,134.271845 C63.0171317,134.271845 61.7955767,133.050245 61.7955767,131.542889 C61.7955767,130.036533 63.0171317,128.814433 64.523316,128.814433 C66.0295004,128.814433 67.2505551,130.036533 67.2505551,131.542889" id="Fill-7" fill="#FFFFFE"></path>
            <path d="M67.2505551,131.542889 C67.2505551,133.050245 66.0295004,134.271845 64.523316,134.271845 C63.0171317,134.271845 61.7955767,133.050245 61.7955767,131.542889 C61.7955767,130.036533 63.0171317,128.814433 64.523316,128.814433 C66.0295004,128.814433 67.2505551,130.036533 67.2505551,131.542889" id="Fill-8" fill="#FFFFFE"></path>
            <path d="M73.6334552,115.456911 C73.6334552,116.23311 73.0046695,116.862176 72.2293172,116.862176 C71.4534647,116.862176 70.8251793,116.23311 70.8251793,115.456911 C70.8251793,114.680713 71.4534647,114.051646 72.2293172,114.051646 C73.0046695,114.051646 73.6334552,114.680713 73.6334552,115.456911" id="Fill-9" fill="#FFFFFE"></path>
            <path d="M153.611793,76.8401561 C153.611793,119.27785 119.224669,153.680312 76.8058966,153.680312 C34.3871237,153.680312 0,119.27785 0,76.8401561 C0,34.4024622 34.3871237,4.54747351e-13 76.8058966,4.54747351e-13 C119.224669,4.54747351e-13 153.611793,34.4024622 153.611793,76.8401561" id="Fill-90" fill="#F5EEB8"></path>
            <path d="M108.983016,32.3130818 C108.983016,39.132219 103.457005,44.6601942 96.6409086,44.6601942 C89.8248117,44.6601942 84.2993012,39.132219 84.2993012,32.3130818 C84.2993012,25.4934441 89.8248117,19.9654689 96.6409086,19.9654689 C103.457005,19.9654689 108.983016,25.4934441 108.983016,32.3130818" id="Fill-91" fill="#F0E6A4"></path>
            <path d="M96.6409086,19.9654689 C91.5505958,19.9654689 87.182111,23.0487439 85.2947535,27.4497047 C87.2581455,26.1325193 89.6197185,25.3628265 92.1613733,25.3628265 C98.9774702,25.3628265 104.503481,30.8908017 104.503481,37.7104394 C104.503481,39.4369933 104.147819,41.0809729 103.507528,42.573316 C106.809028,40.3573216 108.983016,36.5894305 108.983016,32.3130818 C108.983016,25.4934441 103.457005,19.9654689 96.6409086,19.9654689" id="Fill-92" fill="#EFE098"></path>
            <path d="M27.7200946,144.597137 C27.5505175,144.474027 27.3829414,144.351416 27.2143648,144.226804 L27.5820318,144.127715 C27.5825321,144.130217 27.6270523,144.293864 27.7200946,144.597137" id="Fill-94" fill="#F5F4ED"></path>
            <path d="M60.0991077,157.395313 C59.6891516,156.52515 59.2838807,155.631768 58.8950081,154.740707 L59.7014503,154.395313 C60.0873947,155.278827 60.488566,156.164663 60.8950081,157.026698 L60.0991077,157.395313 M154.895008,47.3953127 C154.23648,47.0152132 153.566734,46.6377671 152.895008,46.2689445 L153.368779,45.3953127 C153.686826,45.5697737 154.004213,45.7462248 154.31962,45.9240026 C154.514276,46.4109014 154.706951,46.9044337 154.895008,47.3953127 M150.509527,44.3953127 C149.657042,43.9831602 148.77719,43.5733006 147.895008,43.1777718 L148.256615,42.3953127 C149.146949,42.7942809 150.034371,43.2075798 150.895008,43.6231717 L150.509527,44.3953127 M145.493508,41.2923127 C145.356508,41.0293127 145.215508,40.7593127 145.078508,40.4983127 C145.290508,40.5833127 145.501508,40.6693127 145.711508,40.7543127 L145.493508,41.2923127" id="Fill-95" fill="#F5F4ED"></path>
            <path d="M50.2018091,156.193574 C48.458517,155.609048 46.7422372,154.968472 45.0524695,154.274347 C42.9335067,151.092483 41.3187731,147.804524 40.2132708,144.415474 C41.5123611,145.121109 42.8324608,145.789711 44.1755711,146.420779 C45.6197272,149.783805 47.6301407,153.042738 50.2018091,156.193574" id="Fill-96" fill="#F4BF63"></path>
            <path d="M155.813293,104.364428 C154.240579,102.509258 152.497787,100.78871 150.587419,99.2062857 C150.512385,99.1442298 150.437851,99.0831749 150.362817,99.0221199 C150.674459,97.9861876 150.966091,96.9362426 151.234713,95.8827945 C151.615886,96.1760585 152.000561,96.4813332 152.385736,96.7986188 C153.827891,97.9846862 155.356086,99.3994595 156.88328,101.070463 C156.548628,102.179962 156.192466,103.275448 155.813293,104.364428" id="Fill-97" fill="#F4BF63"></path>
            <path d="M76.8950081,153.395313 C65.1992246,153.395313 54.1102457,150.786554 44.1822194,146.120678 C42.8357149,145.488297 41.512279,144.818304 40.2099057,144.111201 C16.1964892,131.075433 -0.104991874,105.639786 -0.104991874,76.3953127 C-0.104991874,33.8693393 34.3690348,-0.604687326 76.8950081,-0.604687326 C106.492532,-0.604687326 132.188954,16.0929719 145.077785,40.5833068 C145.14649,40.7141961 145.2172,40.8495988 145.285904,40.981491 C150.787767,51.5840233 153.895008,63.6248329 153.895008,76.3953127 C153.895008,82.9829043 153.068049,89.3744129 151.511921,95.4775638 C151.24262,96.5332033 150.95025,97.5853323 150.637821,98.6234196 C141.100457,130.313667 111.694001,153.395313 76.8950081,153.395313 M95.1408284,19.457629 C88.8261055,20.0868721 83.8950081,25.4151728 83.8950081,31.895566 C83.8950081,38.799001 89.4913198,44.3953127 96.3947548,44.3953127 C102.90048,44.3953127 108.2455,39.4252043 108.839785,33.0745102 C108.839785,33.0740035 108.840291,33.0734969 108.840291,33.0729903 C108.842318,33.0486717 108.844344,33.0253664 108.846371,33.0010478 C108.846878,32.9995279 108.846878,32.998008 108.846878,32.9964881 C108.848398,32.9823022 108.849411,32.9676098 108.850931,32.9534239 C108.850931,32.951904 108.850931,32.9498775 108.850931,32.9488642 C108.851944,32.940758 108.852451,32.9336651 108.852957,32.9255589 C108.852957,32.924039 108.853464,32.9225191 108.853464,32.9204925 C108.854477,32.90732 108.85549,32.8941474 108.856504,32.8809748 C108.85701,32.8774284 108.85701,32.8743886 108.857517,32.8713487 C108.85853,32.8566563 108.859544,32.8419638 108.860557,32.827778 C108.860557,32.8267647 108.860557,32.8262581 108.860557,32.8252448 C108.861063,32.8191651 108.86157,32.8120722 108.862077,32.8059926 C108.862583,32.8009262 108.86309,32.7963665 108.86309,32.7913001 C108.863597,32.7826873 108.86461,32.7735678 108.865117,32.764955 C108.865623,32.7583687 108.86613,32.7527957 108.86613,32.7462094 C108.866636,32.7411431 108.867143,32.73557 108.86765,32.729997 C108.868156,32.7223975 108.868663,32.7142913 108.86917,32.7066917 C108.86917,32.7001055 108.869676,32.6940258 108.870183,32.6869329 C108.87069,32.6808533 108.871196,32.674267 108.871196,32.6681873 C108.871703,32.6626143 108.872209,32.6580546 108.872209,32.6524816 C108.872716,32.6433621 108.873223,32.633736 108.873729,32.6241099 C108.874236,32.6190435 108.874743,32.6139772 108.874743,32.6094174 C108.875249,32.6023245 108.875756,32.5952316 108.875756,32.5881387 C108.876263,32.5825657 108.876769,32.5769927 108.876769,32.5714197 C108.877276,32.5628068 108.877782,32.5547007 108.878289,32.5460878 C108.878289,32.5410215 108.878796,32.5359551 108.878796,32.5308887 C108.879302,32.5217693 108.879809,32.5121432 108.880316,32.5030237 C108.880316,32.4989706 108.880822,32.4949175 108.880822,32.491371 C108.881329,32.4827582 108.881836,32.474652 108.881836,32.4660392 C108.882342,32.4619861 108.882342,32.457933 108.882849,32.4538799 C108.882849,32.4432405 108.883355,32.4331078 108.883862,32.4224684 C108.883862,32.418922 108.884369,32.4153755 108.884369,32.411829 C108.884875,32.4032162 108.884875,32.3940967 108.885382,32.3854839 C108.885382,32.3824441 108.885889,32.3788976 108.885889,32.3758578 C108.886395,32.3652184 108.886395,32.3545791 108.886902,32.3439397 C108.886902,32.3403932 108.887409,32.3363401 108.887409,32.332287 C108.887915,32.3216477 108.887915,32.3105017 108.888422,32.2993556 C108.888422,32.2978357 108.888422,32.2963158 108.888422,32.2947959 C108.888928,32.2841565 108.889435,32.2740238 108.889435,32.2638911 C108.889435,32.2608512 108.889942,32.2573048 108.889942,32.2547716 C108.889942,32.2436256 108.890448,32.2324796 108.890448,32.2213335 C108.890955,32.2182937 108.890955,32.2152539 108.890955,32.2117074 C108.890955,32.202588 108.891462,32.1929619 108.891462,32.1838424 C108.891462,32.1808026 108.891968,32.1782694 108.891968,32.1752296 C108.891968,32.1640836 108.892475,32.1529376 108.892475,32.1417915 C108.892475,32.1387517 108.892475,32.1357119 108.892475,32.1326721 C108.892982,32.1210194 108.892982,32.1093668 108.893488,32.0977141 C108.893488,32.0972075 108.893488,32.0967009 108.893488,32.0961942 C108.893488,32.0850482 108.893488,32.0733956 108.893995,32.0622495 C108.893995,32.0592097 108.893995,32.0561699 108.893995,32.0531301 C108.893995,32.0414774 108.893995,32.0303314 108.894501,32.0191854 C108.894501,32.0166522 108.894501,32.014119 108.894501,32.0115859 C108.894501,32.0014531 108.894501,31.9913204 108.894501,31.9811876 C108.894501,31.9786545 108.894501,31.9766279 108.894501,31.9740947 C108.894501,31.9624421 108.894501,31.9507894 108.895008,31.9396434 C108.895008,31.9366036 108.895008,31.9340704 108.895008,31.9310306 C108.895008,31.9193779 108.895008,31.9072186 108.895008,31.895566 C108.895008,24.9916244 103.29819,19.3953127 96.3947548,19.3953127 C96.3831022,19.3953127 96.3704362,19.3953127 96.3587836,19.3953127 C96.3547305,19.3953127 96.351184,19.3953127 96.3476376,19.3953127 C96.3385181,19.3953127 96.3299053,19.3958193 96.3212925,19.3958193 C96.3172394,19.3958193 96.3136929,19.3958193 96.3101464,19.3958193 C96.2979872,19.3958193 96.2858279,19.3958193 96.2741752,19.3958193 C96.2731619,19.3958193 96.2721487,19.3958193 96.2711354,19.3958193 C96.2599894,19.3963259 96.2488434,19.3963259 96.2376974,19.3963259 C96.2341509,19.3963259 96.2300978,19.3963259 96.2265513,19.3963259 C96.2179385,19.3968326 96.2093257,19.3968326 96.2002062,19.3968326 C96.1961531,19.3968326 96.1926067,19.3968326 96.1890602,19.3973392 C96.1774076,19.3973392 96.1657549,19.3973392 96.1535956,19.3978459 C96.1515691,19.3978459 96.1500492,19.3978459 96.1480226,19.3978459 C96.1378899,19.3978459 96.1277571,19.3983525 96.1171178,19.3983525 C96.1130647,19.3983525 96.1095182,19.3983525 96.1054651,19.3988591 C96.0963456,19.3988591 96.0882395,19.3993658 96.07912,19.3993658 C96.0755735,19.3993658 96.0720271,19.3993658 96.0689873,19.3993658 C96.056828,19.3998724 96.0451753,19.400379 96.033016,19.400379 C96.0309895,19.400379 96.0289629,19.4008857 96.0269364,19.4008857 C96.0168036,19.4008857 96.0071775,19.4013923 95.9970448,19.401899 C95.9929917,19.401899 95.9889386,19.401899 95.9843789,19.401899 C95.9762727,19.4024056 95.9686731,19.4024056 95.9605669,19.4029122 C95.9560072,19.4029122 95.9514475,19.4029122 95.9473944,19.4034189 C95.9362484,19.4034189 95.9245957,19.4039255 95.9134497,19.4044321 C95.9099033,19.4044321 95.9068634,19.4049388 95.903317,19.4049388 C95.8947041,19.4054454 95.8860913,19.4054454 95.8779851,19.4059521 C95.8729188,19.4059521 95.868359,19.4064587 95.8632927,19.4064587 C95.8556931,19.4069653 95.8486002,19.4069653 95.8410006,19.407472 C95.8364409,19.407472 95.8318812,19.4079786 95.8273214,19.4079786 C95.8161754,19.4084852 95.8050294,19.4089919 95.79439,19.4094985 C95.7898303,19.4100051 95.7852706,19.4100051 95.7812175,19.4100051 C95.7731113,19.4105118 95.7660184,19.4110184 95.7584188,19.4115251 C95.7533524,19.4115251 95.7482861,19.4120317 95.7432197,19.4120317 C95.7366334,19.4125383 95.7290339,19.413045 95.7219409,19.413045 C95.7173812,19.4135516 95.7118082,19.4135516 95.7067418,19.4140582 C95.6971157,19.4145649 95.6879963,19.4150715 95.6783702,19.4155782 C95.6717839,19.4160848 95.6651976,19.4165914 95.659118,19.4165914 C95.6525317,19.4170981 95.646452,19.4176047 95.6398658,19.4176047 C95.6342928,19.4181113 95.6277065,19.418618 95.6221335,19.4191246 C95.6165605,19.4191246 95.6104808,19.4196312 95.6049078,19.4201379 C95.5993348,19.4201379 95.5922419,19.4206445 95.5866689,19.4211512 C95.5810959,19.4216578 95.5750162,19.4216578 95.5694432,19.4221644 C95.5582972,19.4231777 95.5476578,19.4236843 95.5365118,19.424191 C95.5319521,19.4246976 95.5268857,19.4252043 95.522326,19.4252043 C95.5152331,19.4257109 95.5086468,19.4262175 95.5015539,19.4267242 C95.4969941,19.4272308 95.4924344,19.4277374 95.4878747,19.4277374 C95.4807818,19.4282441 95.4741955,19.4287507 95.4671026,19.4292573 C95.4665959,19.4292573 95.4660893,19.4292573 95.4655827,19.4292573 C95.4488636,19.4307773 95.4321446,19.4317905 95.414919,19.4333104 C95.4113725,19.4333104 95.407826,19.4338171 95.4042796,19.4343237 C95.3961734,19.4348304 95.3895871,19.435337 95.3814809,19.4358436 C95.3779345,19.4363503 95.3748946,19.4363503 95.3713482,19.4368569 C95.3460163,19.4388835 95.3196712,19.44091 95.2943394,19.4434432 C95.2918062,19.4434432 95.289273,19.4434432 95.2867398,19.4439498 C95.278127,19.4444565 95.2700208,19.4454697 95.261408,19.4459764 C95.2598881,19.446483 95.2583681,19.446483 95.2563416,19.446483 C95.2289832,19.4490162 95.2011182,19.4515494 95.1732531,19.4545892 C95.1727465,19.4545892 95.1712266,19.4545892 95.1702133,19.4545892 C95.1610938,19.4556025 95.1514677,19.4566157 95.1423483,19.4571224 C95.1418416,19.457629 95.141335,19.457629 95.1408284,19.457629" id="Fill-98" fill="#F3920F" opacity="0.500906808"></path>
            <path d="M96.4224271,44.3953127 C89.5037091,44.3953127 83.8950081,38.7850165 83.8950081,31.8643306 C83.8950081,25.3677437 88.8370221,20.0261282 95.1657247,19.3953127 C90.5441063,19.8559807 86.6638155,22.8287368 84.9054476,26.9285295 C86.8984,25.5917289 89.2955281,24.8105741 91.8754493,24.8105741 C98.7941673,24.8105741 104.403376,30.4208704 104.403376,37.3420641 C104.403376,39.0943294 104.04236,40.7627906 103.392429,42.2773573 C106.435933,40.2350794 108.535007,36.8935858 108.895008,33.0462208 C108.299407,39.4127845 102.942555,44.3953127 96.4224271,44.3953127 M109.389008,33.9663127 C109.393008,33.9193127 109.397008,33.8713127 109.401008,33.8243127 C109.397008,33.8723127 109.393008,33.9183127 109.389008,33.9663127 M95.3130081,19.9033127 C95.3680081,19.8973127 95.4230081,19.8923127 95.4770081,19.8873127 C95.4230081,19.8923127 95.3680081,19.8973127 95.3130081,19.9033127 M95.3190081,19.9018127 C95.3690081,19.8968127 95.4210081,19.8928127 95.4710081,19.8888127 C95.4200081,19.8928127 95.3700081,19.8968127 95.3190081,19.9018127 M95.3450081,19.8993127 C95.3790081,19.8963127 95.4120081,19.8943127 95.4450081,19.8913127 C95.4120081,19.8943127 95.3790081,19.8963127 95.3450081,19.8993127" id="Fill-99" fill="#FFAC0E"></path>
            <path d="M103.435471,42.9654689 C104.084188,41.3812299 104.44453,39.6360168 104.44453,37.8031446 C104.44453,30.5635652 98.8457973,24.6951867 91.9400007,24.6951867 C89.3648977,24.6951867 86.9722465,25.5122758 84.9830162,26.9105713 C86.7381001,22.6221817 90.6111442,19.5126742 95.2241312,19.0308148 C95.224638,19.0308148 95.2251448,19.0308148 95.2256516,19.0302835 C95.2347742,19.0297523 95.2444036,19.0286897 95.2535262,19.0276272 C95.2545398,19.0276272 95.2560602,19.0276272 95.256567,19.0276272 C95.2844416,19.0244396 95.3123162,19.0217833 95.3396839,19.0191269 C95.3417112,19.0191269 95.3432316,19.0191269 95.344752,19.0185957 C95.3533678,19.0180644 95.3619836,19.0170018 95.3700925,19.0164706 C95.3726266,19.0159393 95.3751606,19.0159393 95.3776947,19.0159393 C95.403542,19.013283 95.4288825,19.0111579 95.4547298,19.0090328 C95.4582775,19.0085016 95.4613184,19.0085016 95.4648661,19.0079703 C95.4724682,19.007439 95.4800704,19.0069078 95.4876725,19.0063765 C95.4912202,19.0058452 95.4947679,19.005314 95.4983155,19.005314 C95.5155471,19.0037202 95.5322718,19.0026576 95.5489966,19.0010638 C95.5495034,19.0010638 95.5500102,19.0010638 95.550517,19.0010638 C95.5576123,19.0005326 95.5642009,19.0000013 95.5712962,18.99947 C95.5758575,18.99947 95.5804188,18.9989388 95.5849801,18.9984075 C95.5920754,18.9978762 95.598664,18.997345 95.6057593,18.9968137 C95.6103206,18.9968137 95.6153887,18.9962824 95.61995,18.9957512 C95.6310998,18.9952199 95.6417428,18.9946886 95.6528927,18.9936261 C95.6584676,18.9930948 95.6645493,18.9930948 95.6701242,18.9925636 C95.6762059,18.9920323 95.6822877,18.991501 95.6883694,18.991501 C95.6939443,18.9909698 95.700026,18.9904385 95.7056009,18.9904385 C95.7111758,18.9899072 95.7177644,18.989376 95.7233393,18.9888447 C95.7299278,18.9888447 95.7360095,18.9883134 95.7425981,18.9877821 C95.7486798,18.9877821 95.7552683,18.9872509 95.7618569,18.9867196 C95.7714863,18.9861883 95.7806088,18.9856571 95.7902382,18.9851258 C95.7958132,18.9845945 95.8003744,18.9845945 95.8054426,18.9840633 C95.8125379,18.9840633 95.82014,18.983532 95.8267286,18.9830007 C95.8317967,18.9830007 95.8368648,18.9824695 95.8419329,18.9824695 C95.849535,18.9819382 95.8566304,18.9814069 95.8647394,18.9808757 C95.8687938,18.9808757 95.8733551,18.9808757 95.8779164,18.9803444 C95.8885594,18.9798131 95.8997093,18.9792819 95.9108591,18.9787506 C95.9154204,18.9787506 95.9199817,18.9782193 95.924543,18.9782193 C95.9321451,18.9776881 95.9392405,18.9776881 95.9468426,18.9771568 C95.9519107,18.9771568 95.956472,18.9766255 95.9615401,18.9766255 C95.9696491,18.9760943 95.9782649,18.9760943 95.9868806,18.975563 C95.9904283,18.975563 95.993976,18.9750317 95.9970168,18.9750317 C96.0081667,18.9745005 96.0198233,18.9739692 96.0309731,18.9739692 C96.0355344,18.9734379 96.0395889,18.9734379 96.0441502,18.9734379 C96.0522591,18.9729067 96.0598613,18.9729067 96.0679703,18.9723754 C96.0720247,18.9723754 96.076586,18.9723754 96.0806405,18.9723754 C96.0907767,18.9718441 96.1004061,18.9713129 96.1105423,18.9713129 C96.1125696,18.9713129 96.1145968,18.9707816 96.1166241,18.9707816 C96.1287875,18.9707816 96.1404441,18.9702503 96.1526076,18.9697191 C96.1556484,18.9697191 96.1597029,18.9697191 96.1627438,18.9697191 C96.1718664,18.9697191 96.1799753,18.9691878 96.1890979,18.9691878 C96.1926456,18.9686565 96.1972069,18.9686565 96.2007546,18.9686565 C96.2113976,18.9686565 96.2215338,18.9681253 96.23167,18.9681253 C96.2336972,18.9681253 96.2352177,18.9681253 96.2372449,18.9681253 C96.2494083,18.967594 96.261065,18.967594 96.2727216,18.967594 C96.2762693,18.9670627 96.2803238,18.9670627 96.2838714,18.9670627 C96.292994,18.9670627 96.3016098,18.9670627 96.3102256,18.9665315 C96.3137732,18.9665315 96.3178277,18.9665315 96.3213754,18.9665315 C96.3325252,18.9665315 96.343675,18.9665315 96.3548249,18.9660002 C96.3558385,18.9660002 96.3568521,18.9660002 96.3578657,18.9660002 C96.3695224,18.9660002 96.3816858,18.9660002 96.3938493,18.9660002 C96.3973969,18.9660002 96.4009446,18.9660002 96.4049991,18.9660002 C96.4136149,18.9660002 96.4222306,18.9654689 96.4313532,18.9654689 C96.4349009,18.9654689 96.4384486,18.9654689 96.4425031,18.9654689 C96.4541597,18.9654689 96.4668299,18.9654689 96.4784866,18.9654689 C103.384283,18.9654689 108.983016,24.8338474 108.983016,32.0734269 C108.983016,32.085646 108.983016,32.0983964 108.983016,32.1106156 C108.983016,32.1138032 108.983016,32.1164595 108.983016,32.1196471 C108.982509,32.131335 108.982509,32.1435541 108.982509,32.1557733 C108.982509,32.1578984 108.982509,32.1605547 108.982509,32.163211 C108.982509,32.1738364 108.982509,32.1844617 108.982509,32.1950871 C108.982509,32.1977434 108.982509,32.2003997 108.982509,32.2030561 C108.982003,32.214744 108.982003,32.2264318 108.982003,32.238651 C108.982003,32.2418386 108.982003,32.2450262 108.982003,32.2482138 C108.981496,32.2599017 108.981496,32.2721208 108.981496,32.2838087 C108.981496,32.28434 108.981496,32.2848712 108.981496,32.2854025 C108.980989,32.2976217 108.980989,32.3098408 108.980482,32.32206 C108.980482,32.3252476 108.980482,32.3284352 108.980482,32.3316228 C108.980482,32.3433106 108.979975,32.3549985 108.979975,32.3666864 C108.979975,32.369874 108.979469,32.3725303 108.979469,32.375718 C108.979469,32.3852808 108.978962,32.3953748 108.978962,32.4049377 C108.978962,32.4086565 108.978962,32.4118441 108.978455,32.4150317 C108.978455,32.4267196 108.977948,32.4384075 108.977948,32.4500954 C108.977948,32.4527517 108.977441,32.4564706 108.977441,32.4596582 C108.977441,32.4702835 108.976934,32.4809089 108.976428,32.4920655 C108.976428,32.4936593 108.976428,32.4952531 108.976428,32.4968469 C108.975921,32.5085348 108.975921,32.5202227 108.975414,32.5313793 C108.975414,32.5356294 108.974907,32.5398795 108.974907,32.5435984 C108.9744,32.554755 108.9744,32.5659116 108.973894,32.5770683 C108.973894,32.5807871 108.973387,32.5839747 108.973387,32.5871623 C108.97288,32.5961939 108.97288,32.6057567 108.972373,32.6147882 C108.972373,32.6185071 108.971866,32.622226 108.971866,32.6259448 C108.97136,32.6371015 108.970853,32.6477268 108.970853,32.6588834 C108.970346,32.6631336 108.970346,32.6673837 108.969839,32.6716338 C108.969839,32.6806654 108.969332,32.6891657 108.968826,32.6981972 C108.968826,32.7019161 108.968319,32.7061662 108.968319,32.7104163 C108.967812,32.7199792 108.967305,32.7300732 108.966798,32.739636 C108.966798,32.7449487 108.966291,32.7502614 108.966291,32.7555741 C108.965785,32.7646056 108.965278,32.7731059 108.964771,32.7821374 C108.964771,32.7879814 108.964264,32.7938253 108.963757,32.7996693 C108.963757,32.807107 108.963251,32.8145447 108.962744,32.8219825 C108.962744,32.8267639 108.962237,32.8326078 108.96173,32.8373892 C108.961223,32.8474833 108.960717,32.8575774 108.96021,32.8671402 C108.96021,32.8729841 108.959703,32.8782968 108.959196,32.8836095 C108.959196,32.8899847 108.958689,32.8968912 108.958182,32.9032664 C108.957676,32.9107041 108.957169,32.9170793 108.957169,32.9239858 C108.956662,32.9319548 108.956155,32.9404551 108.955648,32.9484241 C108.955142,32.954268 108.954635,32.9595807 108.954128,32.9654246 C108.954128,32.9723311 108.953621,32.9781751 108.953114,32.9850815 C108.952608,32.9941131 108.951594,33.0036759 108.951087,33.0127074 C108.951087,33.0180201 108.95058,33.0228015 108.950074,33.0281142 C108.949567,33.0350207 108.94906,33.0419271 108.948553,33.0483023 C108.948553,33.0493649 108.948553,33.0498961 108.948553,33.0509587 C108.947539,33.0658342 108.946526,33.0812409 108.945512,33.0966477 C108.945005,33.0998353 108.945005,33.1030229 108.944499,33.1067417 C108.943485,33.1205547 108.942471,33.1343676 108.941458,33.1481806 C108.941458,33.1503057 108.940951,33.1518995 108.940951,33.1534933 C108.940444,33.1619935 108.939937,33.1694313 108.938924,33.1779316 C108.938924,33.1789941 108.938924,33.1811192 108.938924,33.182713 C108.937403,33.1975885 108.93639,33.2124639 108.934869,33.2278707 C108.934869,33.2294645 108.934869,33.2310583 108.934362,33.2326521 C108.932335,33.2576217 108.930308,33.2831225 108.928281,33.3080921 C108.928281,33.3086233 108.927774,33.3091546 108.927774,33.3096859 C108.568445,37.3340356 106.473292,40.8292431 103.435471,42.9654689" id="Fill-100" fill="#F3920F"></path>
            <path d="M127.858592,72.0008007 C127.858592,78.3329997 122.727261,83.4661195 116.398385,83.4661195 C110.06901,83.4661195 104.938178,78.3329997 104.938178,72.0008007 C104.938178,65.6686017 110.06901,60.5354819 116.398385,60.5354819 C122.727261,60.5354819 127.858592,65.6686017 127.858592,72.0008007" id="Fill-101" fill="#FFAC0E"></path>
            <path d="M116.398385,60.5354819 C115.167326,60.5354819 113.982788,60.7316585 112.871283,61.0909819 C117.474374,62.5793214 120.805388,66.9002102 120.805388,72.0008007 C120.805388,77.1013913 117.474374,81.4222801 112.871283,82.9106196 C113.982788,83.2699429 115.167326,83.4661195 116.398385,83.4661195 C122.727261,83.4661195 127.858592,78.3329997 127.858592,72.0008007 C127.858592,65.6686017 122.727261,60.5354819 116.398385,60.5354819" id="Fill-102" fill="#F3920F"></path>
            <path d="M121.851863,123.061756 C121.851863,129.394455 116.721032,134.527074 110.391656,134.527074 C104.06228,134.527074 98.9314493,129.394455 98.9314493,123.061756 C98.9314493,116.729557 104.06228,111.596437 110.391656,111.596437 C116.721032,111.596437 121.851863,116.729557 121.851863,123.061756" id="Fill-103" fill="#FFAC0E"></path>
            <path d="M110.391656,111.596437 C109.160597,111.596437 107.976059,111.793114 106.864554,112.151937 C111.468145,113.640276 114.798659,117.961165 114.798659,123.061756 C114.798659,128.162847 111.468145,132.482734 106.864554,133.971574 C107.976059,134.330898 109.160597,134.527074 110.391656,134.527074 C116.721032,134.527074 121.851863,129.393955 121.851863,123.061756 C121.851863,116.729557 116.721032,111.596437 110.391656,111.596437" id="Fill-104" fill="#F3920F"></path>
            <path d="M56.5897114,113.785907 C56.5897114,123.373536 48.8201813,131.146031 39.2368272,131.146031 C29.6529728,131.146031 21.8844431,123.373536 21.8844431,113.785907 C21.8844431,104.198278 29.6529728,96.4257832 39.2368272,96.4257832 C48.8201813,96.4257832 56.5897114,104.198278 56.5897114,113.785907" id="Fill-105" fill="#FFAC0E"></path>
            <path d="M39.2368272,96.4257832 C37.3729803,96.4257832 35.5796655,96.7230507 33.8964008,97.2670403 C40.8665676,99.5205685 45.9093588,106.062456 45.9093588,113.785907 C45.9093588,121.509358 40.8665676,128.051246 33.8964008,130.304774 C35.5796655,130.849264 37.3729803,131.146031 39.2368272,131.146031 C48.8201813,131.146031 56.5897114,123.373536 56.5897114,113.785907 C56.5897114,104.198278 48.8201813,96.4257832 39.2368272,96.4257832" id="Fill-106" fill="#F3920F"></path>
            <path d="M75.3367291,54.7362626 C75.3367291,58.7954159 72.0477347,62.0858773 67.9903913,62.0858773 C63.9330478,62.0858773 60.6440535,58.7954159 60.6440535,54.7362626 C60.6440535,50.6776098 63.9330478,47.386648 67.9903913,47.386648 C72.0477347,47.386648 75.3367291,50.6776098 75.3367291,54.7362626" id="Fill-107" fill="#FFAC0E"></path>
            <path d="M67.9903913,47.386648 C67.2010326,47.386648 66.4421879,47.5127615 65.729364,47.7429687 C68.6802047,48.6968271 70.8151747,51.4668201 70.8151747,54.7362626 C70.8151747,58.0062056 68.6802047,60.7756981 65.729364,61.7295566 C66.4421879,61.9602642 67.2010326,62.0858773 67.9903913,62.0858773 C72.0477347,62.0858773 75.3367291,58.7954159 75.3367291,54.7362626 C75.3367291,50.6776098 72.0477347,47.386648 67.9903913,47.386648" id="Fill-108" fill="#F3920F"></path>
            <path d="M19.9190502,72.0698629 C19.9190502,74.3924532 18.0366949,76.2751476 15.7151401,76.2751476 C13.3935853,76.2751476 11.5112301,74.3924532 11.5112301,72.0698629 C11.5112301,69.7472725 13.3935853,67.8640777 15.7151401,67.8640777 C18.0366949,67.8640777 19.9190502,69.7472725 19.9190502,72.0698629" id="Fill-109" fill="#FFAC0E"></path>
            <path d="M15.7151401,67.8640777 C15.2634349,67.8640777 14.8292376,67.9361425 14.4215524,68.0682614 C16.1103197,68.6137524 17.3313745,70.1986788 17.3313745,72.0698629 C17.3313745,73.9405465 16.1103197,75.5254729 14.4215524,76.0714643 C14.8292376,76.2030828 15.2634349,76.2751476 15.7151401,76.2751476 C18.0366949,76.2751476 19.9190502,74.3924532 19.9190502,72.0698629 C19.9190502,69.7472725 18.0366949,67.8640777 15.7151401,67.8640777" id="Fill-110" fill="#F3920F"></path>
            <path d="M79.5401389,137.706436 C79.5401389,140.029026 77.6582839,141.911721 75.3367291,141.911721 C73.0146741,141.911721 71.132819,140.029026 71.132819,137.706436 C71.132819,135.383345 73.0146741,133.500651 75.3367291,133.500651 C77.6582839,133.500651 79.5401389,135.383345 79.5401389,137.706436" id="Fill-111" fill="#FFAC0E"></path>
            <path d="M75.3367291,133.500651 C74.8850238,133.500651 74.4508266,133.572715 74.0431413,133.704334 C75.7314084,134.250826 76.9529634,135.835252 76.9529634,137.706436 C76.9529634,139.577119 75.7314084,141.162046 74.0431413,141.708037 C74.4508266,141.840156 74.8850238,141.911721 75.3367291,141.911721 C77.6582839,141.911721 79.5401389,140.029026 79.5401389,137.706436 C79.5401389,135.383345 77.6582839,133.500651 75.3367291,133.500651" id="Fill-112" fill="#F3920F"></path>
            <path d="M37.7541535,56.2751476 C37.7541535,60.9028125 34.0049501,64.6536883 29.3793484,64.6536883 C24.754247,64.6536883 21.0045434,60.9028125 21.0045434,56.2751476 C21.0045434,51.6479832 24.754247,47.8966069 29.3793484,47.8966069 C34.0049501,47.8966069 37.7541535,51.6479832 37.7541535,56.2751476" id="Fill-113" fill="#FFAC0E"></path>
            <path d="M29.3793484,47.8966069 C28.4799398,47.8966069 27.6140464,48.0402362 26.8021775,48.3024722 C30.1657057,49.3904514 32.5998117,52.547793 32.5998117,56.2751476 C32.5998117,60.0025023 30.1657057,63.1598439 26.8021775,64.247823 C27.6140464,64.5105595 28.4799398,64.6536883 29.3793484,64.6536883 C34.0049501,64.6536883 37.7541535,60.9028125 37.7541535,56.2751476 C37.7541535,51.6479832 34.0049501,47.8966069 29.3793484,47.8966069" id="Fill-114" fill="#F3920F"></path>
            <path d="M144.296561,104.804324 C144.296561,109.431488 140.546857,113.182865 135.921756,113.182865 C131.296654,113.182865 127.546951,109.431488 127.546951,104.804324 C127.546951,100.176659 131.296654,96.4257832 135.921756,96.4257832 C140.546857,96.4257832 144.296561,100.176659 144.296561,104.804324" id="Fill-115" fill="#FFAC0E"></path>
            <path d="M135.921756,96.4257832 C135.022347,96.4257832 134.156954,96.568912 133.344585,96.8316485 C136.708613,97.9191272 139.142219,101.076969 139.142219,104.804324 C139.142219,108.531679 136.708613,111.68902 133.344585,112.776499 C134.156954,113.039235 135.022347,113.182865 135.921756,113.182865 C140.546857,113.182865 144.296561,109.431488 144.296561,104.804324 C144.296561,100.176659 140.546857,96.4257832 135.921756,96.4257832" id="Fill-116" fill="#F3920F"></path>
            <path d="M68.4951206,24.3178861 C68.4951206,30.6415774 63.3707924,35.7686918 57.0494203,35.7686918 C50.7285484,35.7686918 45.6042202,30.6415774 45.6042202,24.3178861 C45.6042202,17.9931939 50.7285484,12.8665799 57.0494203,12.8665799 C63.3707924,12.8665799 68.4951206,17.9931939 68.4951206,24.3178861" id="Fill-117" fill="#FFAC0E"></path>
            <path d="M51.0662018,29.0776699 C51.0662018,22.7539786 56.19053,17.6268642 62.5119021,17.6268642 C64.0706103,17.6268642 65.5557851,17.9401461 66.9099004,18.5041537 C64.9184956,15.131118 61.2493285,12.8665799 57.0494203,12.8665799 C50.7285484,12.8665799 45.6042202,17.9931939 45.6042202,24.3178861 C45.6042202,29.0826744 48.513542,33.1663497 52.6519223,34.8914023 C51.6459652,33.1868682 51.0662018,31.2005805 51.0662018,29.0776699" id="Fill-118" fill="#F3920F"></path>
            <path d="M141.67537,35.686618 C136.513525,37.3841457 132.78483,42.2425183 132.78483,47.9746772 C132.78483,55.1191072 138.573461,60.9098188 145.714205,60.9098188 C147.851176,60.9098188 149.865091,60.3883495 151.640898,59.470023 C149.662499,50.9053148 146.250949,42.8896006 141.67537,35.686618" id="Fill-119" fill="#FFAC0E"></path>
            <path d="M144.255542,40.0595536 C143.442673,38.5712141 142.581782,37.1134021 141.67537,35.686618 C136.513525,37.3841457 132.78483,42.2425183 132.78483,47.9746772 C132.78483,52.512261 135.122393,56.5013512 138.655998,58.8104294 C137.373415,56.8016215 136.626576,54.4174757 136.626576,51.8571715 C136.626576,46.6034431 139.758999,42.0848764 144.255542,40.0595536" id="Fill-120" fill="#F3920F"></path>
            <path d="M126.279875,92.6353718 C126.279875,95.5264738 123.93681,97.8700831 121.047498,97.8700831 C118.157685,97.8700831 115.81512,95.5264738 115.81512,92.6353718 C115.81512,89.7442698 118.157685,87.4006606 121.047498,87.4006606 C123.93681,87.4006606 126.279875,89.7442698 126.279875,92.6353718" id="Fill-121" fill="#FFAC0E"></path>
            <path d="M87.2706512,92.6353718 C87.2706512,95.5264738 84.9280869,97.8700831 82.0382739,97.8700831 C79.1484609,97.8700831 76.8058966,95.5264738 76.8058966,92.6353718 C76.8058966,89.7442698 79.1484609,87.4006606 82.0382739,87.4006606 C84.9280869,87.4006606 87.2706512,89.7442698 87.2706512,92.6353718" id="Fill-122" fill="#FFAC0E"></path>
            <path d="M125.868279,89.4006606 C125.868279,91.2343109 124.382104,92.7206486 122.549772,92.7206486 C120.716939,92.7206486 119.231264,91.2343109 119.231264,89.4006606 C119.231264,87.5675108 120.716939,86.0811731 122.549772,86.0811731 C124.382104,86.0811731 125.868279,87.5675108 125.868279,89.4006606" id="Fill-123" fill="#3E39B8"></path>
            <path d="M88.4017565,89.4006606 C88.4017565,91.2343109 86.9155812,92.7206486 85.0832487,92.7206486 C83.2504159,92.7206486 81.7647409,91.2343109 81.7647409,89.4006606 C81.7647409,87.5675108 83.2504159,86.0811731 85.0832487,86.0811731 C86.9155812,86.0811731 88.4017565,87.5675108 88.4017565,89.4006606" id="Fill-124" fill="#3E39B8"></path>
            <path d="M103.543136,106.518066 C98.3782893,106.518066 94.1763801,102.314283 94.1763801,97.1471324 C94.1763801,96.4164748 94.768149,95.8239415 95.4984808,95.8239415 C96.2288127,95.8239415 96.8210818,96.4164748 96.8210818,97.1471324 C96.8210818,100.85547 99.8364518,103.872185 103.543136,103.872185 C107.24932,103.872185 110.26469,100.85547 110.26469,97.1471324 C110.26469,96.4164748 110.856959,95.8239415 111.587291,95.8239415 C112.317623,95.8239415 112.909391,96.4164748 112.909391,97.1471324 C112.909391,102.314283 108.707983,106.518066 103.543136,106.518066" id="Fill-125" fill="#3E39B8"></path>
            <path d="M164.600786,188.26694 C164.600786,188.26694 158.95222,195.409869 162.510336,200.887299 C164.867907,204.517065 168.057857,207.002803 170.555992,208.941547 C171.21329,209.451506 172.280275,208.809929 171.959629,208.041738 C170.59651,204.770293 168.490553,198.31098 173.764449,193.213392 L164.600786,188.26694" id="Fill-127" fill="#DD443B"></path>
            <path d="M162.510336,200.887299 C158.95222,195.409869 164.600786,188.26694 164.600786,188.26694 L168.413018,190.41087 C168.413018,190.41087 162.763951,197.553798 166.322568,203.031228 C167.88978,205.443399 169.823659,207.348614 171.678502,208.925533 C171.36736,209.153238 170.906151,209.213792 170.555992,208.941547 C168.057857,207.002803 164.867907,204.517065 162.510336,200.887299" id="Fill-129" fill="#CB3731"></path>
            <path d="M140.50834,144.433991 C140.50834,144.433991 125.80616,181.187068 174.789415,197.568311 L184.400282,189.94495 C179.629614,138.495146 140.50834,144.433991 140.50834,144.433991" id="Fill-130" fill="#FFFFFE"></path>
            <path d="M177.973264,177.182758 C177.973264,177.182758 186.213008,173.309271 190.732061,178.024515 C193.726922,181.149328 195.41869,184.823634 196.735789,187.698222 C197.082446,188.454903 196.214552,189.348207 195.539745,188.860768 C192.66644,186.786401 186.861302,183.262229 180.697001,187.236806 L177.973264,177.182758" id="Fill-126" fill="#DD443B"></path>
            <path d="M190.732061,178.024515 C186.213008,173.309271 177.973264,177.182758 177.973264,177.182758 L179.190817,181.38504 C179.190817,181.38504 187.430061,177.512054 191.949614,182.226797 C193.939518,184.303666 195.35266,186.622253 196.464165,188.788203 C196.756298,188.536976 196.920373,188.101585 196.735789,187.698222 C195.41869,184.823634 193.726922,181.149328 190.732061,178.024515" id="Fill-128" fill="#CB3731"></path>
            <path d="M140.50834,144.433991 L179.595099,193.756381 L184.400282,189.94495 C179.629614,138.495146 140.50834,144.433991 140.50834,144.433991" id="Fill-131" fill="#F5F4F3"></path>
            <path d="M181.99669,189.971975 C183.307785,191.626964 186.142073,198.619257 187.685775,202.561806 C188.013924,203.40006 187.060491,204.156241 186.319154,203.645781 C182.83457,201.242618 176.675772,196.887198 175.364677,195.232709 C173.512835,192.896106 173.496828,189.823841 175.32766,188.371534 C177.158992,186.919227 180.144848,187.635372 181.99669,189.971975" id="Fill-132" fill="#DD443B"></path>
            <path d="M156.340033,188.712341 L179.989778,169.953458 C178.91529,167.179462 177.698237,164.69973 176.374135,162.486238 L149.897105,183.487138 C151.749447,185.282254 153.884917,187.03283 156.340033,188.712341" id="Fill-133" fill="#DD443B"></path>
            <path d="M149.897105,183.487138 L176.374135,162.486238 C176.007969,161.874187 175.632298,161.287158 175.250625,160.714643 L148.429439,181.98879 C148.899652,182.491242 149.384372,182.991192 149.897105,183.487138" id="Fill-134" fill="#ECC374"></path>
            <path d="M157.907745,155.724652 C160.180278,158.591733 159.699059,162.759484 156.832757,165.03353 C153.966454,167.307076 149.800061,166.825143 147.527529,163.957562 C145.254996,161.089981 145.736215,156.92223 148.603017,154.648183 C151.46932,152.374637 155.635213,152.856571 157.907745,155.724652" id="Fill-135" fill="#DD443B"></path>
            <path d="M148.603017,154.648183 L156.832757,165.03353 C159.699059,162.759484 160.180278,158.591733 157.907745,155.724652 C155.635213,152.856571 151.46932,152.374637 148.603017,154.648183" id="Fill-136" fill="#CB3731"></path>
            <path d="M157.599105,159.348914 C157.871228,162.045841 155.905835,164.452507 153.210111,164.724752 C150.513886,164.996497 148.108293,163.030227 147.836669,160.3333 C147.564546,157.636373 149.529438,155.229707 152.225663,154.957462 C154.921888,154.685717 157.327481,156.651486 157.599105,159.348914" id="Fill-137" fill="#A4D7D9"></path>
            <path d="M152.225663,154.957462 L153.210111,164.724752 C155.905835,164.452507 157.871228,162.045841 157.599105,159.348914 C157.327481,156.651486 154.921888,154.685717 152.225663,154.957462" id="Fill-138" fill="#80C9C7"></path>
            <path d="M163.13562,172.986688 L168.164405,179.3334 L179.989778,169.953458 C178.91529,167.179462 177.698237,164.69973 176.374135,162.486238 L163.13562,172.986688" id="Fill-139" fill="#CB3731"></path>
            <path d="M161.840032,171.351717 L163.13562,172.986688 L176.374135,162.486238 C176.007969,161.874187 175.632298,161.287158 175.250625,160.714643 L161.840032,171.351717" id="Fill-140" fill="#DBAD5F"></path>
            <path d="M175.32766,188.371534 L187.403146,203.609248 C187.693278,203.379542 187.849849,202.981183 187.685775,202.561806 C186.142073,198.619257 183.307785,191.626964 181.99669,189.971975 C180.144848,187.635372 177.158992,186.919227 175.32766,188.371534" id="Fill-141" fill="#CB3731"></path>
            <path d="M135.198927,18.2504254 C133.424621,18.2504254 131.852907,19.1001902 130.854954,20.4103693 C129.8565,19.1001902 128.285286,18.2504254 126.51098,18.2504254 C123.493609,18.2504254 121.047498,20.6976279 121.047498,23.7168452 C121.047498,28.2379141 126.475964,32.9476529 130.266186,34.7572816 C130.639856,34.9359423 131.070051,34.9359423 131.443721,34.7572816 C135.233443,32.9476529 140.66241,28.2379141 140.66241,23.7168452 C140.66241,20.6976279 138.216298,18.2504254 135.198927,18.2504254" id="Fill-142" fill="#DD443B"></path>
            <path d="M154.2861,29.247823 C153.205609,29.247823 152.248674,29.7652888 151.640898,30.5635072 C151.033122,29.7652888 150.075687,29.247823 148.995696,29.247823 C147.157861,29.247823 145.668684,30.7381643 145.668684,32.5768191 C145.668684,35.3302973 148.974686,38.1978781 151.282235,39.3003703 C151.509838,39.4084676 151.771957,39.4084676 151.999561,39.3003703 C154.307109,38.1978781 157.613611,35.3302973 157.613611,32.5768191 C157.613611,30.7381643 156.123935,29.247823 154.2861,29.247823" id="Fill-143" fill="#DD443B"></path>
            <path d="M154.2861,8.72935642 C153.205609,8.72935642 152.248674,9.24682214 151.640898,10.0450405 C151.033122,9.24682214 150.075687,8.72935642 148.995696,8.72935642 C147.157861,8.72935642 145.668684,10.2196977 145.668684,12.0583525 C145.668684,14.8113302 148.974686,17.6794115 151.282235,18.7819037 C151.509838,18.890001 151.771957,18.890001 151.999561,18.7819037 C154.307109,17.6794115 157.613611,14.8113302 157.613611,12.0583525 C157.613611,10.2196977 156.123935,8.72935642 154.2861,8.72935642" id="Fill-144" fill="#DD443B"></path>
            <path d="M135.198927,18.2504254 C133.424621,18.2504254 131.852907,19.1001902 130.854954,20.4103693 L130.854954,34.8914023 C131.056045,34.8914023 131.256636,34.8468622 131.443721,34.7572816 C135.233443,32.9476529 140.66241,28.2379141 140.66241,23.7168452 C140.66241,20.6976279 138.216298,18.2504254 135.198927,18.2504254" id="Fill-145" fill="#CB3731"></path>
            <path d="M154.2861,8.72935642 C153.205609,8.72935642 152.248674,9.24682214 151.640898,10.0450405 L151.640898,18.8629767 C151.762953,18.8629767 151.885509,18.8359524 151.999561,18.7819037 C154.307109,17.6794115 157.613611,14.8113302 157.613611,12.0583525 C157.613611,10.2196977 156.123935,8.72935642 154.2861,8.72935642" id="Fill-146" fill="#CB3731"></path>
            <path d="M154.2861,29.247823 C153.205609,29.247823 152.248674,29.7652888 151.640898,30.5635072 L151.640898,39.3814433 C151.762953,39.3814433 151.885509,39.354419 151.999561,39.3003703 C154.307109,38.1978781 157.613611,35.3302973 157.613611,32.5768191 C157.613611,30.7381643 156.123935,29.247823 154.2861,29.247823" id="Fill-147" fill="#CB3731"></path>
        </g>
    </g>
</svg>