<?xml version="1.0" encoding="UTF-8"?>
<svg width="390px" height="844px" viewBox="0 0 390 844" version="1.1" xmlns="http://www.w3.org/2000/svg" xmlns:xlink="http://www.w3.org/1999/xlink">
    <title>session done bg</title>
    <defs>
        <path d="M41.1747206,45.0074125 C41.1747206,37.6569557 42.0698233,30.5468023 43.8600285,23.6769522 C45.6502337,16.8071022 48.2502937,10.3189105 51.6602085,4.21237718 C52.1716957,3.30770557 52.2995675,2.47371143 52.0438239,1.71039476 C51.7880803,0.94707809 51.2765931,0.424064816 50.5093623,0.141354939 C49.7421314,-0.141354939 48.8186129,0 47.7388065,0.565419755 C38.361541,5.3149457 30.0782897,11.591105 22.8890528,19.3938976 C15.6998158,27.1966902 10.0876645,36.0455094 6.05259869,45.9403551 C2.0175329,55.8352008 0,66.3520083 0,77.4907775 C0,89.3080503 2.2732765,100.432684 6.8198295,110.864679 C11.3663825,121.296673 17.6463088,130.49888 25.6596085,138.471298 C33.6729082,146.443717 42.9223019,152.691605 53.4077898,157.214963 C63.8932777,161.738321 75.0749565,164 86.9528262,164 C95.9322684,164 104.542303,162.657128 112.78293,159.971384 C121.023558,157.28564 128.653242,153.525599 135.671983,148.69126 C142.690724,143.856921 148.842779,138.160317 154.128147,131.601448 C154.980625,130.640234 155.207953,129.65075 154.81013,128.632994 C154.412306,127.615239 153.360916,127.332529 151.655959,127.784865 C147.905052,129.028788 144.068898,129.961731 140.147496,130.583692 C136.226094,131.205654 132.219445,131.516635 128.127547,131.516635 C116.249677,131.516635 105.067998,129.254956 94.5825104,124.731598 C84.0970226,120.20824 74.8476288,113.960352 66.8343291,105.987933 C58.8210295,98.0155146 52.5411031,88.8133081 47.9945501,78.3813136 C43.4479971,67.9493191 41.1747206,56.8246854 41.1747206,45.0074125 Z" id="path-1"></path>
        <ellipse id="path-3" cx="17.8286385" cy="17.7787611" rx="17.8286385" ry="17.7787611"></ellipse>
        <ellipse id="path-5" cx="9.09624413" cy="9.07079646" rx="9.09624413" ry="9.07079646"></ellipse>
        <ellipse id="path-7" cx="12.0070423" cy="11.9734513" rx="12.0070423" ry="11.9734513"></ellipse>
        <ellipse id="path-9" cx="9.09624413" cy="9.07079646" rx="9.09624413" ry="9.07079646"></ellipse>
    </defs>
    <g id="session-done-bg" stroke="none" stroke-width="1" fill="none" fill-rule="evenodd">
        <rect fill="#3E39B8" x="0" y="0" width="390" height="844"></rect>
        <g id="Combined-Shape" transform="translate(117.000000, 448.000000)">
            <g id="Mask">
                <mask id="mask-2" fill="white">
                    <use xlink:href="#path-1"></use>
                </mask>
                <use fill="#FFAC0E" fill-rule="nonzero" xlink:href="#path-1"></use>
                <g id="Path-2" mask="url(#mask-2)">
                    <g transform="translate(-10.187793, 71.840708)">
                        <mask id="mask-4" fill="white">
                            <use xlink:href="#path-3"></use>
                        </mask>
                        <use id="Mask" stroke="none" fill="#F89B0D" fill-rule="evenodd" xlink:href="#path-3"></use>
                        <path d="M11.6431925,0 C8.73239437,4.28902575 7.27699531,8.32440903 7.27699531,12.1061498 C7.27699531,17.7787611 10.0620334,25.2188461 16.2194004,28.300885 C20.3243117,30.3555775 25.5907713,31.3956566 32.0187793,31.421122 C22.7347936,44.2977702 11.3240324,44.2977702 -2.21350428,31.421122 C-15.7510409,18.5444739 -11.132142,8.07076656 11.6431925,0 Z" id="Path-2" stroke="none" fill="#F3920F" fill-rule="evenodd" mask="url(#mask-4)"></path>
                    </g>
                </g>
                <g id="Path-3" mask="url(#mask-2)">
                    <g transform="translate(13.826291, 39.185841)">
                        <mask id="mask-6" fill="white">
                            <use xlink:href="#path-5"></use>
                        </mask>
                        <use id="Mask" stroke="none" fill="#F89B0D" fill-rule="evenodd" xlink:href="#path-5"></use>
                        <path d="M1.89601151,2.90265487 C1.74467965,5.95248929 2.13684508,8.47181294 3.07250781,10.4606258 C4.47600191,13.4438451 6.40558407,14.4086426 8.915623,15.1878544 C10.5889823,15.7073289 12.7110047,16.1629254 15.2816901,16.5546437 C7.5146147,22.2318586 1.77086021,22.52484 -1.94957333,17.4335879 C-2.49659673,16.68501 -2.93001599,15.9364322 -3.24983112,15.1878544 C-4.4867125,12.2927382 -2.77143162,8.19767167 1.89601151,2.90265487 Z" id="Path-3" stroke="none" fill="#F3920F" fill-rule="evenodd" mask="url(#mask-6)"></path>
                    </g>
                </g>
                <g id="Path-4" mask="url(#mask-2)">
                    <g transform="translate(90.962441, 124.814159)">
                        <mask id="mask-8" fill="white">
                            <use xlink:href="#path-7"></use>
                        </mask>
                        <use id="Mask" stroke="none" fill="#F89B0D" fill-rule="evenodd" xlink:href="#path-7"></use>
                        <path d="M5.2570037,1.45132743 C4.01962233,6.32873793 3.71509824,9.91955102 4.34343144,12.2237667 C5.28593124,15.6800902 6.80664559,18.7327966 13.1754148,20.1140755 C17.4212609,21.034928 21.7618503,19.0071921 26.1971831,14.0308676 C16.3680964,33.1196716 8.26389874,38.0848796 1.88459006,28.9264915 C-4.49471862,19.7681035 -3.37058074,10.6097155 5.2570037,1.45132743 Z" id="Path-4" stroke="none" fill="#F3920F" fill-rule="evenodd" mask="url(#mask-8)"></path>
                    </g>
                </g>
                <g id="Path-6" mask="url(#mask-2)">
                    <g transform="translate(42.934272, 127.716814)">
                        <mask id="mask-10" fill="white">
                            <use xlink:href="#path-9"></use>
                        </mask>
                        <use id="Mask" stroke="none" fill="#F89B0D" fill-rule="evenodd" xlink:href="#path-9"></use>
                        <path d="M4.17914176,1.45132743 C2.64237679,6.71605854 2.79793808,10.3736026 4.64582561,12.4239597 C7.41765691,15.4994953 13.9033101,14.1137138 16.1820142,13.2688368 C17.7011503,12.7055854 18.6298224,12.1757199 18.9680306,11.6792401 C23.831503,22.0137721 20.3868267,24.9426614 8.63400163,20.4659078 C-3.11882341,15.9891543 -4.6037767,9.6509608 4.17914176,1.45132743 Z" id="Path-6" stroke="none" fill="#F3920F" fill-rule="evenodd" mask="url(#mask-10)"></path>
                    </g>
                </g>
            </g>
            <path d="M0.049002622,46.0861941 C0.049002622,101.192482 44.7214756,145.864955 99.8277637,145.864955 C120.636227,145.864955 139.956971,139.495274 155.946539,128.59937 C139.971508,155.61819 110.539705,173.739414 76.8754628,173.739414 C26.1776777,173.739414 -14.9209974,132.640738 -14.9209974,81.9429534 C-14.9209974,62.5306927 -8.89537267,44.5257921 1.38753607,29.6965923 C0.507317134,35.0299298 0.049002622,40.5045394 0.049002622,46.0861941 Z" fill-opacity="0.15" fill="#3E39B8" transform="translate(70.512272, 101.718003) rotate(9.000000) translate(-70.512272, -101.718003) "></path>
        </g>
    </g>
</svg>