<?xml version="1.0" encoding="UTF-8"?>
<svg width="227px" height="228px" viewBox="0 0 227 228" version="1.1" xmlns="http://www.w3.org/2000/svg" xmlns:xlink="http://www.w3.org/1999/xlink">
    <title>Breath Session Moon</title>
    <g id="Page-1" stroke="none" stroke-width="1" fill="none" fill-rule="evenodd">
        <g id="Breath-Session-Moon" transform="translate(0.251129, 0.656238)">
            <g id="Fill-163" transform="translate(0.216127, 0.000000)" fill="#FDE1A2">
                <path d="M226.272302,113.268309 C226.272302,175.824145 175.619456,226.53579 113.136151,226.53579 C50.652846,226.53579 0,175.824145 0,113.268309 C0,50.7116446 50.652846,0 113.136151,0 C175.619456,0 226.272302,50.7116446 226.272302,113.268309" id="Fill-162"></path>
            </g>
            <path d="M75.7135154,36.7175742 C75.7135154,36.7175742 62.9903788,37.8752648 59.8089747,44.2446314 C56.6283972,50.6131706 54.0255805,54.3766992 55.472049,62.1933859 C56.9176909,70.0100726 60.6768558,80.1429679 75.7135154,79.5637089 C90.750175,78.9852774 93.6422854,60.7460659 93.6422854,60.7460659 C93.6422854,60.7460659 94.5093399,55.7636108 90.750175,48.8456031 C86.9910101,41.9284229 86.9910101,41.9284229 86.9910101,41.9284229 C86.9910101,41.9284229 85.937981,34.0380875 75.7135154,36.7175742" id="Fill-166" fill="#F0D090"></path>
            <path d="M70.3872052,37.6932119 C70.3872052,37.6932119 78.2617795,36.4991108 82.0589659,45.5802372 C85.8561522,54.6621912 90.9187919,81.4835388 63.6722853,76.7799556 C63.6722853,76.7799556 81.9870557,86.5801907 91.3039658,67.9983888 L93.2496725,62.5334937 C93.2496725,62.5334937 95.4078034,57.7827422 91.6907928,50.7604679 C87.9746086,43.7381936 86.9910101,41.9284229 86.9910101,41.9284229 C86.9910101,41.9284229 84.2865273,35.6277398 80.0000213,36.1722432 C75.7135154,36.7175742 74.3645802,36.3915342 70.3872052,37.6932119" id="Fill-167" fill="#F0C57C"></path>
            <path d="M158.190321,116.608151 C158.190321,116.608151 162.738018,108.069045 175.766152,112.338184 C188.794287,116.608151 187.622234,127.909494 187.622234,127.909494 C187.622234,127.909494 189.154664,144.987705 172.919502,146.996906 C156.685167,149.00528 145.647373,130.169432 158.190321,116.608151" id="Fill-168" fill="#F0D090"></path>
            <path d="M167.697338,146.911673 C167.697338,146.911673 177.158895,146.016304 179.763365,132.430197 C182.368661,118.844091 172.988933,111.59425 172.988933,111.59425 C172.988933,111.59425 186.147663,112.851242 187.622234,126.371975 C189.095979,139.893536 181.060227,147.581958 167.697338,146.911673" id="Fill-169" fill="#F0C57C"></path>
            <path d="M156.183449,163.069689 C156.183449,163.069689 164.682898,158.80055 170.215846,166.083491 C175.749621,173.36726 172.975708,186.677804 163.200061,188.937742 C153.423587,191.198507 139.375485,175.124897 156.183449,163.069689" id="Fill-170" fill="#F0D090"></path>
            <path d="M164.422533,188.576946 C176.424089,173.147969 160.694778,161.878071 160.694778,161.878071 C160.694778,161.878071 171.107697,161.451901 172.938513,173.246443 C174.769329,185.040156 164.422533,188.576946 164.422533,188.576946" id="Fill-171" fill="#F0C57C"></path>
            <path d="M20.2947624,48.8456031 C20.2947624,48.8456031 -35.1851554,124.24775 37.3151502,197.14005 C37.3151502,197.14005 84.4022448,246.036131 157.334838,217.657404 C157.334838,217.657404 22.7264826,229.273203 20.2947624,48.8456031" id="Fill-172" fill="#F0D090"></path>
            <path d="M32.9071409,105.137995 C32.9071409,105.137995 43.4547889,102.181291 46.8296065,109.150605 C50.2052506,116.119918 52.3146149,126.468794 43.0324202,133.438108 C33.7510519,140.407421 22.1487217,134.282998 21.7263529,125.201872 C21.3048107,116.119918 20.8824419,107.249808 32.9071409,105.137995" id="Fill-173" fill="#F0D090"></path>
            <path d="M38.0086862,106.343762 C35.4738586,106.343762 33.3679245,106.901119 33.3226896,106.913342 L33.2012256,106.940232 C22.1144961,108.832313 22.4814011,116.516345 22.9069438,125.413689 C23.0853702,129.134293 25.5188383,132.497177 29.2590912,134.211621 C33.5120059,136.160741 38.4585218,135.568346 42.4919636,132.625923 C51.8329626,125.811336 48.6765745,115.664013 45.9641581,110.220817 C44.3985293,107.079571 40.920471,106.343762 38.0086862,106.343762 Z M33.9636832,137.343762 C31.8280811,137.343762 29.7008604,136.890263 27.6951713,135.968556 C23.1079851,133.861213 20.1208242,129.682481 19.9012293,125.064958 C19.4804788,116.251544 19.0052487,106.288447 32.2186582,103.999704 C33.2479045,103.729239 44.0114062,101.121004 47.7436811,108.624582 C50.2011322,113.564866 54.7078561,125.939272 43.5160605,134.121873 C40.6018185,136.252912 37.2735312,137.342945 33.9636832,137.343762 L33.9636832,137.343762 Z" id="Fill-174" fill="#FDE1A2"></path>
            <path d="M31.337516,134.736476 C37.5813004,135.644257 40.6279763,131.869143 42.4389548,127.089429 C43.7821041,123.546019 43.3382449,119.496998 43.0018377,115.62341 C42.2116526,106.524079 32.4723738,106.836879 32.4723738,106.836879 C32.4723738,106.836879 42.7852807,102.633113 46.3989722,111.55453 C46.3989722,111.55453 51.2805966,122.015947 45.3269324,129.190484 C39.3740948,136.365848 31.337516,134.736476 31.337516,134.736476" id="Fill-175" fill="#F0C57C"></path>
            <path d="M53.2114254,141.570077 C53.2114254,141.570077 67.9587913,131.726811 79.236286,145.333606 C90.5137807,158.939572 77.2120567,172.835996 77.2120567,172.835996 C77.2120567,172.835996 65.5609599,187.310024 49.6993999,174.283316 C33.83784,161.255781 47.0858381,144.223083 53.2114254,141.570077" id="Fill-176" fill="#F0D090"></path>
            <path d="M65.1164195,139.343762 C59.205998,139.343762 54.5193601,142.375257 54.1897214,142.59297 L53.9968828,142.697704 C50.9469009,144.018829 44.9680794,150.162636 43.9107634,157.705088 C43.0883149,163.570156 45.4023784,168.786207 50.7878503,173.20645 C55.4604785,177.04365 60.185849,178.740825 64.8304579,178.265814 C71.8937907,177.536804 76.4271466,172.00078 76.4724719,171.944702 L76.541696,171.865533 C76.5730117,171.832546 79.7416635,168.474481 81.5283051,163.59902 C83.8629711,157.226778 82.8452116,151.341093 78.5022221,146.1036 C74.1773626,140.888373 69.3357945,139.343762 65.1164195,139.343762 Z M62.7925605,181.343762 C58.0565,181.344589 53.3270461,179.426626 48.702471,175.630382 C41.0917416,169.379643 40.2741828,162.498952 40.9290556,157.827225 C42.0695089,149.690764 48.4051769,142.693507 52.4128667,140.892937 C53.7919811,140.03068 68.6137445,131.279149 79.9522117,144.95786 C91.4690555,158.852343 78.7357833,173.143645 77.9107921,174.039796 C77.4400765,174.611878 72.4628775,180.439343 64.6002739,181.250344 C63.9982533,181.313174 63.3945811,181.343762 62.7925605,181.343762 L62.7925605,181.343762 Z" id="Fill-177" fill="#FDE1A2"></path>
            <path d="M57.2846806,177.088585 C70.5326786,176.239557 75.9895842,163.567024 73.2429472,153.808165 C69.6962066,141.205144 57.2846806,141.523736 57.2846806,141.523736 C57.2846806,141.523736 67.8529925,135.687288 76.5185784,144.163502 C85.1841643,152.639717 82.6797075,160.310761 82.6797075,160.310761 C82.6797075,160.310761 81.4225198,167.344621 75.7275668,173.180242 C75.7275668,173.180242 68.968013,180.6171 57.9847713,177.364147" id="Fill-178" fill="#F0C57C"></path>
            <path d="M183.650645,50.4791135 C186.309668,50.4791135 186.3138,46.3415491 183.650645,46.3415491 C180.991623,46.3415491 180.986664,50.4791135 183.650645,50.4791135" id="Fill-179" fill="#F0C57C"></path>
            <path d="M180.038607,36.0158433 C182.698456,36.0158433 182.702589,31.8782789 180.038607,31.8782789 C177.379585,31.8782789 177.375452,36.0158433 180.038607,36.0158433" id="Fill-180" fill="#F0C57C"></path>
            <path d="M166.107876,37.0485794 C168.767725,37.0485794 168.771857,32.911015 166.107876,32.911015 C163.448853,32.911015 163.444721,37.0485794 166.107876,37.0485794" id="Fill-181" fill="#F0C57C"></path>
            <path d="M165.656578,25.7464084 C165.828501,25.5742857 166.000424,25.402163 166.172347,25.2292128 C166.745975,24.6549189 166.788956,23.6023225 166.172347,23.0354762 C165.553258,22.4669748 164.592803,22.4222891 163.980327,23.0354762 C163.808404,23.2075989 163.636481,23.3797216 163.464558,23.5518442 C162.890103,24.1269657 162.847949,25.1795621 163.464558,25.7464084 C164.08282,26.3149098 165.044102,26.3595955 165.656578,25.7464084" id="Fill-182" fill="#F0C57C"></path>
            <path d="M152.177971,20.001814 C154.172445,20.001814 154.175751,16.8986406 152.177971,16.8986406 C150.183498,16.8986406 150.180192,20.001814 152.177971,20.001814" id="Fill-183" fill="#F0C57C"></path>
            <path d="M136.699106,23.6180453 C138.693579,23.6180453 138.696885,20.5148719 136.699106,20.5148719 C134.704632,20.5148719 134.701326,23.6180453 136.699106,23.6180453" id="Fill-184" fill="#F0C57C"></path>
            <path d="M128.44349,11.2210747 C130.437963,11.2210747 130.44127,8.11790141 128.44349,8.11790141 C126.449017,8.11790141 126.44571,11.2210747 128.44349,11.2210747" id="Fill-185" fill="#F0C57C"></path>
            <path d="M103.678297,9.67114309 C105.67277,9.67114309 105.676076,6.56796977 103.678297,6.56796977 C101.683823,6.56796977 101.680517,9.67114309 103.678297,9.67114309" id="Fill-186" fill="#F0C57C"></path>
            <path d="M219.251127,106.782263 C221.245601,106.782263 221.248907,103.679089 219.251127,103.679089 C217.256654,103.679089 217.253348,106.782263 219.251127,106.782263" id="Fill-187" fill="#F0C57C"></path>
            <path d="M212.027877,117.630129 C214.02235,117.630129 214.025657,114.526956 212.027877,114.526956 C210.033404,114.526956 210.030097,117.630129 212.027877,117.630129" id="Fill-188" fill="#F0C57C"></path>
            <path d="M219.251127,129.510732 C221.245601,129.510732 221.248907,126.407558 219.251127,126.407558 C217.256654,126.407558 217.253348,129.510732 219.251127,129.510732" id="Fill-189" fill="#F0C57C"></path>
            <path d="M212.543646,149.655705 C214.53812,149.655705 214.541426,146.552532 212.543646,146.552532 C210.549173,146.552532 210.545867,149.655705 212.543646,149.655705" id="Fill-190" fill="#F0C57C"></path>
            <path d="M207.900069,135.708803 C209.894543,135.708803 209.897849,132.60563 207.900069,132.60563 C205.905596,132.60563 205.90229,135.708803 207.900069,135.708803" id="Fill-191" fill="#F0C57C"></path>
            <path d="M205.320396,166.186103 C207.314869,166.186103 207.318176,163.082929 205.320396,163.082929 C203.325923,163.082929 203.322616,166.186103 205.320396,166.186103" id="Fill-192" fill="#F0C57C"></path>
            <path d="M195.001703,179.099441 C196.996177,179.099441 196.999483,175.996268 195.001703,175.996268 C193.00723,175.996268 193.003924,179.099441 195.001703,179.099441" id="Fill-193" fill="#F0C57C"></path>
            <path d="M123.375065,114.196778 L92.4710592,114.196778 C92.4710592,114.196778 93.9753864,128.233052 107.923475,128.44324 C121.870737,128.654256 123.375065,114.196778 123.375065,114.196778" id="Fill-194" fill="#3E39B8"></path>
            <path d="M139.620145,118.334343 C144.93819,118.334343 144.947282,110.059214 139.620145,110.059214 C134.301274,110.059214 134.292182,118.334343 139.620145,118.334343" id="Fill-195" fill="#3E39B8"></path>
            <path d="M76.2425096,117.026045 C81.5605542,117.026045 81.5696463,108.750916 76.2425096,108.750916 C70.9236384,108.750916 70.9153728,117.026045 76.2425096,117.026045" id="Fill-196" fill="#3E39B8"></path>
        </g>
    </g>
</svg>