<?xml version="1.0" encoding="UTF-8"?>
<svg width="289px" height="34px" viewBox="0 0 289 34" version="1.1" xmlns="http://www.w3.org/2000/svg" xmlns:xlink="http://www.w3.org/1999/xlink">
    <title>Time Picker Rectangle</title>
    <g id="Page-1" stroke="none" stroke-width="1" fill="none" fill-rule="evenodd" fill-opacity="0.5">
        <g id="Time-Picker-Rectangle" transform="translate(0.000000, 0.041667)" fill="#F2E5D7">
            <path d="M8.9735982,-1.26937825e-15 L280.026402,3.62544108e-16 C283.146717,-2.10648567e-16 284.278219,0.324889639 285.41896,0.934964463 C286.559701,1.54503929 287.454961,2.4402993 288.065036,3.58104004 C288.67511,4.72178078 289,5.85328261 289,8.9735982 L289,24.0264018 C289,27.1467174 288.67511,28.2782192 288.065036,29.41896 C287.454961,30.5597007 286.559701,31.4549607 285.41896,32.0650355 C284.278219,32.6751104 283.146717,33 280.026402,33 L8.9735982,33 C5.85328261,33 4.72178078,32.6751104 3.58104004,32.0650355 C2.4402993,31.4549607 1.54503929,30.5597007 0.934964463,29.41896 C0.324889639,28.2782192 -1.70370625e-15,27.1467174 2.93222342e-15,24.0264018 L2.41696072e-16,8.9735982 C-1.40432378e-16,5.85328261 0.324889639,4.72178078 0.934964463,3.58104004 C1.54503929,2.4402993 2.4402993,1.54503929 3.58104004,0.934964463 C4.72178078,0.324889639 5.85328261,7.37545317e-16 8.9735982,-1.26937825e-15 Z" id="Rectangle"></path>
        </g>
    </g>
</svg>