<?xml version="1.0" encoding="UTF-8"?>
<svg width="390px" height="844px" viewBox="0 0 390 844" version="1.1" xmlns="http://www.w3.org/2000/svg" xmlns:xlink="http://www.w3.org/1999/xlink">
    <title>set up complete bg</title>
    <defs>
        <circle id="path-1" cx="78" cy="78" r="78"></circle>
        <circle id="path-3" cx="19.3274336" cy="19.3274336" r="19.3274336"></circle>
        <circle id="path-5" cx="19.3274336" cy="19.3274336" r="19.3274336"></circle>
        <circle id="path-7" cx="16.9115044" cy="16.9115044" r="16.9115044"></circle>
        <circle id="path-9" cx="14.840708" cy="14.840708" r="14.840708"></circle>
        <circle id="path-11" cx="6.55752212" cy="6.55752212" r="6.55752212"></circle>
        <circle id="path-13" cx="6.55752212" cy="6.55752212" r="6.55752212"></circle>
        <circle id="path-15" cx="14.4955752" cy="14.4955752" r="14.4955752"></circle>
        <circle id="path-17" cx="10.3539823" cy="10.3539823" r="10.3539823"></circle>
        <circle id="path-19" cx="19.3274336" cy="19.3274336" r="19.3274336"></circle>
        <path d="M5.5570898,3.14760104 C5.5570898,3.14760104 -9.1450901,39.9006788 39.8381653,56.2819219 L49.449032,48.6585609 C44.6783645,-2.79124392 5.5570898,3.14760104 5.5570898,3.14760104" id="path-21"></path>
    </defs>
    <g id="set-up-complete-bg" stroke="none" stroke-width="1" fill="none" fill-rule="evenodd">
        <rect fill="#3E39B8" x="0" y="0" width="390" height="844"></rect>
        <g id="bulan-hepi" transform="translate(91.000000, 239.000000)">
            <g id="path" transform="translate(10.410336, 81.820335)" stroke="#F2E5D7">
                <path d="M194.66195,118.473752 C197.368922,136.45247 184.344827,143.275938 155.589664,138.944156 C112.456921,132.446483 116.244532,91.4304088 72.5896645,97.9702788 C28.9347972,104.510149 -24.2156453,81.7725858 12.0232928,31.728338" id="Path-11" stroke-dasharray="4"></path>
                <path d="M61.6791239,57.2019375 C49.1310243,84.418912 54.9500486,103.625603 79.136197,114.822011 C115.41542,131.616622 181.088134,115.02462 187.148764,64.4128655 C193.209394,13.8011106 159.756692,1.14817187 144.30443,1.14817187" id="Path-12" stroke-dasharray="5" transform="translate(121.561996, 61.148172) rotate(-1.000000) translate(-121.561996, -61.148172) "></path>
            </g>
            <g id="Path-13">
                <g id="Mask">
                    <path d="M163.341318,117.557844 C161.402823,107.55851 156.209674,101.525994 152.044292,98.1683725 C147.191747,94.2558437 142.735521,93.0494778 142.548399,93 L142,94.9904522 C142.0424,95.0017909 146.274361,96.1607405 150.784551,99.8214133 C156.255579,104.262736 159.758676,110.28735 161.232171,117.744417 C159.544923,118.325781 158.333188,119.89739 158.333188,121.750747 C158.333188,124.097508 160.273085,126 162.666419,126 C165.059753,126 167,124.097508 167,121.750747 C167,119.629728 165.413321,117.876357 163.341318,117.557844" id="Fill-6" fill="#FFAC0E"></path>
                    <g id="Path-5-+-Path-2-+-Path-3-+-Path-4-+-Path-6-Mask">
                        <mask id="mask-2" fill="white">
                            <use xlink:href="#path-1"></use>
                        </mask>
                        <use id="Mask" fill="#FFAC0E" xlink:href="#path-1"></use>
                        <g id="Path-5" mask="url(#mask-2)">
                            <g transform="translate(33.132743, -2.761062)">
                                <mask id="mask-4" fill="white">
                                    <use xlink:href="#path-3"></use>
                                </mask>
                                <use id="Mask" stroke="none" fill="#F89B0D" fill-rule="evenodd" xlink:href="#path-3"></use>
                                <path d="M-4.12821049,23.8055677 C-7.9014455,13.9060346 -3.71967054,6.8253155 8.41711437,2.56341032 C6.15478602,11.3320445 5.58920394,17.2153653 6.72036811,20.2133727 C8.41711437,24.7103838 11.7353121,31.2719001 25.1950897,31.2719001 C34.1682747,31.2719001 39.4689269,29.5003713 41.0970463,25.9573138 C30.7376283,47.1688633 19.8443176,53.7022661 8.41711437,45.5575221 C-8.7236905,33.3404062 1.53164202,38.6548673 -4.12821049,23.8055677 Z" id="Path-5" stroke="none" fill="#F3920F" fill-rule="evenodd" mask="url(#mask-4)"></path>
                            </g>
                        </g>
                        <g id="Path-5" mask="url(#mask-2)">
                            <g transform="translate(33.132743, -2.761062)">
                                <mask id="mask-6" fill="white">
                                    <use xlink:href="#path-5"></use>
                                </mask>
                                <use id="Mask" stroke="none" fill="#F89B0D" fill-rule="evenodd" xlink:href="#path-5"></use>
                                <path d="M-4.12821049,23.8055677 C-7.9014455,13.9060346 -3.71967054,6.8253155 8.41711437,2.56341032 C6.15478602,11.3320445 5.58920394,17.2153653 6.72036811,20.2133727 C8.41711437,24.7103838 11.7353121,31.2719001 25.1950897,31.2719001 C34.1682747,31.2719001 39.4689269,29.5003713 41.0970463,25.9573138 C30.7376283,47.1688633 19.8443176,53.7022661 8.41711437,45.5575221 C-8.7236905,33.3404062 1.53164202,38.6548673 -4.12821049,23.8055677 Z" id="Path-5" stroke="none" fill="#F3920F" fill-rule="evenodd" mask="url(#mask-6)"></path>
                            </g>
                        </g>
                        <g id="Path-2" mask="url(#mask-2)">
                            <g transform="translate(112.513274, 19.327434)">
                                <mask id="mask-8" fill="white">
                                    <use xlink:href="#path-7"></use>
                                </mask>
                                <use id="Mask" stroke="none" fill="#F89B0D" fill-rule="evenodd" xlink:href="#path-7"></use>
                                <path d="M11.0442478,0 C8.28318584,4.07980498 6.90265487,7.9183403 6.90265487,11.515606 C6.90265487,16.9115044 9.54442612,23.9886585 15.3850481,26.920354 C19.2787962,28.8748177 24.2743406,29.8641611 30.3716814,29.8883844 C21.5652789,42.1369033 10.7415058,42.1369033 -2.09963803,29.8883844 C-14.9407818,17.6398654 -10.5594866,7.67707063 11.0442478,0 Z" id="Path-2" stroke="none" fill="#F3920F" fill-rule="evenodd" mask="url(#mask-8)"></path>
                            </g>
                        </g>
                        <g id="Path-3" mask="url(#mask-2)">
                            <g transform="translate(12.424779, 63.504425)">
                                <mask id="mask-10" fill="white">
                                    <use xlink:href="#path-9"></use>
                                </mask>
                                <use id="Mask" stroke="none" fill="#F89B0D" fill-rule="evenodd" xlink:href="#path-9"></use>
                                <path d="M3.56407714,4.83185841 C3.31563022,9.70564259 3.95946219,13.7316447 5.49557306,16.9098646 C7.79973936,21.6771946 10.9676032,23.218988 15.0884236,24.4642065 C17.8356372,25.2943521 21.319437,26.0224175 25.539823,26.6484025 C12.7883383,35.7208689 3.35861179,36.1890674 -2.74935661,28.0529981 C-3.64742443,26.8567343 -4.35898429,25.6604704 -4.8840362,24.4642065 C-6.91466845,19.8376696 -4.09863068,13.2935535 3.56407714,4.83185841 Z" id="Path-3" stroke="none" fill="#F3920F" fill-rule="evenodd" mask="url(#mask-10)"></path>
                            </g>
                        </g>
                        <g id="Path-3" mask="url(#mask-2)">
                            <g transform="translate(73.858407, 30.371681)">
                                <mask id="mask-12" fill="white">
                                    <use xlink:href="#path-11"></use>
                                </mask>
                                <use id="Mask" stroke="none" fill="#F89B0D" fill-rule="evenodd" xlink:href="#path-11"></use>
                                <path d="M1.96751511,2.76106195 C1.85709426,4.96586908 2.1432418,6.78715573 2.82595774,8.22492191 C3.85003165,10.3815712 5.25797114,11.0790492 7.08944687,11.6423623 C8.3104307,12.0179043 9.85878616,12.3472672 11.7345133,12.630451 C6.06718675,16.7346619 1.87619718,16.946466 -0.838455444,13.2658633 C-1.2375967,12.7246963 -1.55384553,12.1835293 -1.78720193,11.6423623 C-2.68970515,9.54940509 -1.43813281,6.58897165 1.96751511,2.76106195 Z" id="Path-3" stroke="none" fill="#F3920F" fill-rule="evenodd" mask="url(#mask-12)"></path>
                            </g>
                        </g>
                        <g id="Path-3" mask="url(#mask-2)">
                            <g transform="translate(124.938053, 106.991150)">
                                <mask id="mask-14" fill="white">
                                    <use xlink:href="#path-13"></use>
                                </mask>
                                <use id="Mask" stroke="none" fill="#F89B0D" fill-rule="evenodd" xlink:href="#path-13"></use>
                                <path d="M1.96751511,1.38053097 C1.85709426,3.58533811 2.1432418,5.40662476 2.82595774,6.84439094 C3.85003165,9.00104021 5.25797114,9.69851819 7.08944687,10.2618313 C8.3104307,10.6373734 9.85878616,10.9667363 11.7345133,11.24992 C6.06718675,15.3541309 1.87619718,15.565935 -0.838455444,11.8853323 C-1.2375967,11.3441653 -1.55384553,10.8029983 -1.78720193,10.2618313 C-2.68970515,8.16887412 -1.43813281,5.20844068 1.96751511,1.38053097 Z" id="Path-3" stroke="none" fill="#F3920F" fill-rule="evenodd" mask="url(#mask-14)"></path>
                            </g>
                        </g>
                        <g id="Path-4" mask="url(#mask-2)">
                            <g transform="translate(138.053097, 78.000000)">
                                <mask id="mask-16" fill="white">
                                    <use xlink:href="#path-15"></use>
                                </mask>
                                <use id="Mask" stroke="none" fill="#F89B0D" fill-rule="evenodd" xlink:href="#path-15"></use>
                                <path d="M6.3688121,1.50740796 C4.85947391,7.3880281 4.48802025,11.7174172 5.25445114,14.4955752 C6.40409747,18.6628123 8.25904074,22.3434142 16.0275645,24.0088013 C21.2065804,25.1190593 26.5011626,22.6742487 31.9113113,16.6743695 C19.921947,39.689452 10.036575,45.6759283 2.25519536,34.6337982 C-5.52618432,23.5916681 -4.15497874,12.549538 6.3688121,1.50740796 Z" id="Path-4" stroke="none" fill="#F3920F" fill-rule="evenodd" mask="url(#mask-16)"></path>
                            </g>
                        </g>
                        <g id="Path-4" mask="url(#mask-2)">
                            <g transform="translate(53.150442, 53.150442)">
                                <mask id="mask-18" fill="white">
                                    <use xlink:href="#path-17"></use>
                                </mask>
                                <use id="Mask" stroke="none" fill="#F89B0D" fill-rule="evenodd" xlink:href="#path-17"></use>
                                <path d="M4.44370018,0.690265487 C3.36025852,4.90798188 3.09361956,8.01311959 3.6437833,10.0056786 C4.46902892,12.9945171 5.80055477,15.6343297 11.3770003,16.8287837 C15.0946307,17.6250864 18.8952176,15.8716119 22.7787611,11.5683601 C14.172488,28.0753081 7.07651447,32.3689469 1.4908406,24.4492766 C-4.09483327,16.5296062 -3.11054674,8.60993585 4.44370018,0.690265487 Z" id="Path-4" stroke="none" fill="#F3920F" fill-rule="evenodd" mask="url(#mask-18)"></path>
                            </g>
                        </g>
                        <g id="Path-6" mask="url(#mask-2)">
                            <g transform="translate(39.345133, 98.707965)">
                                <mask id="mask-20" fill="white">
                                    <use xlink:href="#path-19"></use>
                                </mask>
                                <use id="Mask" stroke="none" fill="#F89B0D" fill-rule="evenodd" xlink:href="#path-19"></use>
                                <path d="M8.30325673,0.690265487 C5.03728037,12.1455799 5.36788361,20.1038815 9.29506645,24.5651701 C15.1858407,31.257103 28.9693343,28.2418374 33.8121008,26.4035038 C37.0406118,25.177948 39.014252,24.0250351 39.7330215,22.9447651 C50.0690106,45.4312532 42.748287,51.8041042 17.7708509,42.0633181 C-7.20658523,32.322532 -10.36245,18.5315145 8.30325673,0.690265487 Z" id="Path-6" stroke="none" fill="#F3920F" fill-rule="evenodd" mask="url(#mask-20)"></path>
                            </g>
                        </g>
                    </g>
                    <path d="M93,94 C93,94 93.7301613,103.850881 100.500201,103.998394 C107.269839,104.146489 108,94 108,94 L93,94 Z" id="Fill-194" fill="#3E39B8"></path>
                    <path d="M86.0002329,85 C82.0033392,85 81.9965069,91 86.0002329,91 C89.9965055,91 90.0033378,85 86.0002329,85 Z" id="Fill-195" fill="#3E39B8"></path>
                    <path d="M116.000116,91 C119.996544,91 120.003377,85 116.000116,85 C112.003068,85 111.996856,91 116.000116,91" id="Fill-196" fill="#3E39B8"></path>
                    <path d="M116.747671,165.670086 C105.532319,159.168788 98.8880231,151.663361 96.9882733,143.330823 C94.7084357,133.329914 100.286278,125.572938 100.342842,125.495644 L99.5095462,124.882126 L98.6769398,124.267226 C98.423088,124.611252 92.4868873,132.819914 94.9626324,143.755594 C96.9837895,152.682672 103.958851,160.64634 115.705361,167.458883 C115.596026,167.83638 115.534287,168.234926 115.534287,168.647964 C115.534287,171.004732 117.444039,172.915336 119.799757,172.915336 C122.155474,172.915336 124.065226,171.004732 124.065226,168.647964 C124.065226,166.291196 122.155474,164.380592 119.799757,164.380592 C118.602583,164.380592 117.522333,164.87541 116.747671,165.670086 Z" id="Fill-5" fill="#FFAC0E" transform="translate(109.212616, 148.591281) rotate(-36.000000) translate(-109.212616, -148.591281) "></path>
                </g>
                <path d="M-3.1798461,33.9294087 C2.88837072,61.0745977 3.96123216,100.087068 44.051419,122.026305 C84.1416058,143.965542 150.246285,138.55242 176.859755,129.825654 C187.013529,126.496152 161.827985,141.908626 101.303126,176.063075 L-9.12398366,129.459881 C-9.20670317,47.6761069 -7.22532398,15.8326161 -3.1798461,33.9294087 Z" fill="#3E39B8" opacity="0.199079241" transform="translate(84.960670, 102.537101) rotate(11.000000) translate(-84.960670, -102.537101) "></path>
            </g>
            <g id="roket-wush" transform="translate(147.951250, 137.286390)">
                <path d="M30.0108081,47.9805507 C26.6702064,55.3588911 27.5754229,60.0043654 32.7264575,61.9169737 C40.4530094,64.7858862 35.8575791,61.42441 35.8575791,58.4091408 C35.8575791,56.3989614 36.5968119,54.3386351 38.0752774,52.228162 L30.0108081,47.9805507 Z" id="Path-7" fill="#E94F37"></path>
                <path d="M50.0200344,29.7136104 C46.6794328,37.0919508 47.5846492,41.7374252 52.7356839,43.6500335 C60.4622358,46.518946 55.8668055,43.1574698 55.8668055,40.1422006 C55.8668055,38.1320211 56.6060383,36.0716948 58.0845038,33.9612217 L50.0200344,29.7136104 Z" id="Path-7" fill="#E94F37" transform="translate(53.066627, 37.227184) scale(-1, 1) rotate(92.000000) translate(-53.066627, -37.227184) "></path>
                <g id="Path-10">
                    <g id="Mask">
                        <mask id="mask-22" fill="white">
                            <use xlink:href="#path-21" transform="translate(26.468680, 29.610301) rotate(-8.000000) translate(-26.468680, -29.610301) "></use>
                        </mask>
                        <use fill="#F2E5D7" transform="translate(26.468680, 29.610301) rotate(-8.000000) translate(-26.468680, -29.610301) " xlink:href="#path-21"></use>
                        <path d="M17.0096649,45.4943962 C30.3197297,37.6549959 38.9787738,29.3216626 42.9867971,20.4943962" id="Path-9" stroke="#E94F37" stroke-width="5" mask="url(#mask-22)"></path>
                    </g>
                    <path d="M0.239411531,26.2647378 C-3.62432336,17.4021021 -3.70412721,12.7488201 -9.47686374e-13,12.3048918 C4.72270449,25.0179728 11.4056212,34.0433707 20.0487501,39.3810854 C28.6918791,44.7188 38.2146113,48.0790139 48.6169468,49.4617271 L38.5802036,61.7386661 C16.8834104,46.9520163 4.10314642,35.1273735 0.239411531,26.2647378 Z" fill="#3E39B8" opacity="0.303172771"></path>
                </g>
                <circle id="Oval" stroke="#E94F37" stroke-width="3" fill="#FFFAF5" cx="18.0487501" cy="21.7136104" r="6.5"></circle>
                <path d="M40.5204076,41.9560283 C42.6485441,40.0398456 45.8076222,40.0789608 47.5764062,42.0433944 C47.6754959,42.1534446 47.7681201,42.2672026 47.8543182,42.3842444 L47.8702154,42.3697026 C53.9394101,50.5480241 56.0470438,55.4718266 54.1931167,57.1411101 C51.4122261,59.6450353 40.494736,49.6766312 40.1635517,49.3088137 L40.1800347,49.2948512 C40.0725157,49.1967954 39.9689426,49.0926784 39.8697425,48.9825056 C38.1009585,47.0180719 38.3922712,43.8722109 40.5204076,41.9560283 Z" id="Combined-Shape" fill="#E94F37"></path>
            </g>
            <g id="hati" transform="translate(144.000000, 41.640852)" fill="#E94F37">
                <path d="M14.1514297,10.3591482 C12.3771235,10.3591482 10.8054094,11.208913 9.807456,12.5190922 C8.80900235,11.208913 7.23778847,10.3591482 5.46348232,10.3591482 C2.44611139,10.3591482 0,12.8063507 0,15.825568 C0,20.346637 5.42846641,25.0563757 9.21868849,26.8660044 C9.59235827,27.0446652 10.0225537,27.0446652 10.3962235,26.8660044 C14.1859454,25.0563757 19.614912,20.346637 19.614912,15.825568 C19.614912,12.8063507 17.1688006,10.3591482 14.1514297,10.3591482" id="Fill-142"></path>
                <path d="M25.5040296,0 C24.4377945,0 23.4933031,0.510649815 22.8936022,1.2979768 C22.2936006,0.510649815 21.3494099,0 20.2831747,0 C18.4699436,0 17,1.47059929 17,3.28493989 C17,6.00178938 20.2621325,8.83201636 22.5397936,9.91947792 C22.7643433,10.0268407 23.022861,10.0268407 23.2474107,9.91947792 C25.5247712,8.83201636 28.7872043,6.00178938 28.7872043,3.28493989 C28.7872043,1.47059929 27.3172607,0 25.5040296,0" id="Fill-142"></path>
                <path d="M28.6616828,22.0465181 C27.8816808,21.022993 26.6542328,20.3591482 25.2681271,20.3591482 C22.9109267,20.3591482 21,22.2709273 21,24.6295701 C21,28.1614744 25.2407723,31.8407695 28.2017317,33.2544695 C28.4936463,33.3940411 28.8297193,33.3940411 29.1216339,33.2544695 C32.0822025,31.8407695 36.3233656,28.1614744 36.3233656,24.6295701 C36.3233656,22.2709273 34.4124389,20.3591482 32.0552385,20.3591482 C30.6691328,20.3591482 29.441294,21.022993 28.6616828,22.0465181 Z" id="Fill-142"></path>
            </g>
        </g>
    </g>
</svg>