<?xml version="1.0" encoding="UTF-8"?>
<svg width="213px" height="226px" viewBox="0 0 213 226" version="1.1" xmlns="http://www.w3.org/2000/svg" xmlns:xlink="http://www.w3.org/1999/xlink">
    <title>Combined Shape</title>
    <defs>
        <path d="M56.5820354,62.0224099 C56.5820354,51.8931219 57.8120797,42.0949836 60.2721682,32.6279952 C62.7322567,23.1610067 66.3052424,14.2199621 70.9911252,5.80486123 C71.6940076,4.55817962 71.8697283,3.40889502 71.518287,2.35700741 C71.1668458,1.30511981 70.4639634,0.584382003 69.4096398,0.194794001 C68.3553161,-0.194794001 67.0862228,0 65.6023599,0.779176004 C52.7161821,7.32425444 41.3333917,15.9731081 31.4539887,26.7257369 C21.5745856,37.4783658 13.8624034,49.6724703 8.31744206,63.3080503 C2.77248069,76.9436304 0,91.4363041 0,106.786071 C0,123.07085 3.1239219,138.401138 9.37176571,152.776935 C15.6196095,167.152732 24.2494438,179.833822 35.2612685,190.820203 C46.2730932,201.806585 58.9835504,210.41648 73.3926402,216.649888 C87.80173,222.883296 103.167521,226 119.490013,226 C131.829504,226 143.661358,224.149457 154.985575,220.448371 C166.309792,216.747285 176.794455,211.565765 186.439564,204.90381 C196.084673,198.241855 204.538787,190.391657 211.801905,181.353215 C212.973376,180.028616 213.285768,178.665058 212.739082,177.262541 C212.192395,175.860024 210.747581,175.470436 208.40464,176.093777 C203.250169,177.807964 197.978551,179.093605 192.589785,179.950698 C187.20102,180.807792 181.695108,181.236339 176.072048,181.236339 C159.749556,181.236339 144.383765,178.119635 129.974676,171.886227 C115.565586,165.652818 102.855129,157.042924 91.8433039,146.056542 C80.8314792,135.07016 72.201645,122.389071 65.9538012,108.013274 C59.7059574,93.6374763 56.5820354,78.3071884 56.5820354,62.0224099 Z" id="path-1"></path>
        <circle id="path-3" cx="24.5" cy="24.5" r="24.5"></circle>
        <circle id="path-5" cx="12.5" cy="12.5" r="12.5"></circle>
        <circle id="path-7" cx="16.5" cy="16.5" r="16.5"></circle>
        <circle id="path-9" cx="12.5" cy="12.5" r="12.5"></circle>
    </defs>
    <g id="Page-1" stroke="none" stroke-width="1" fill="none" fill-rule="evenodd">
        <g id="ilustration" transform="translate(-1097.000000, -610.000000)">
            <g id="Combined-Shape" transform="translate(1097.000000, 610.000000)">
                <g id="Mask">
                    <mask id="mask-2" fill="white">
                        <use xlink:href="#path-1"></use>
                    </mask>
                    <use fill="#FFAC0E" fill-rule="nonzero" xlink:href="#path-1"></use>
                    <g id="Path-2" mask="url(#mask-2)">
                        <g transform="translate(-14.000000, 99.000000)">
                            <mask id="mask-4" fill="white">
                                <use xlink:href="#path-3"></use>
                            </mask>
                            <use id="Mask" stroke="none" fill="#F89B0D" fill-rule="evenodd" xlink:href="#path-3"></use>
                            <path d="M16,0 C12,5.91048671 10,11.4714417 10,16.682865 C10,24.5 13.8271814,34.7528001 22.2885954,39 C27.929538,41.8314666 35.1666729,43.2647462 44,43.2998389 C31.2420066,61.0444882 15.5614122,61.0444882 -3.0417833,43.2998389 C-21.6449788,25.5551897 -15.2977177,11.12191 16,0 Z" id="Path-2" stroke="none" fill="#F3920F" fill-rule="evenodd" mask="url(#mask-4)"></path>
                        </g>
                    </g>
                    <g id="Path-3" mask="url(#mask-2)">
                        <g transform="translate(19.000000, 54.000000)">
                            <mask id="mask-6" fill="white">
                                <use xlink:href="#path-5"></use>
                            </mask>
                            <use id="Mask" stroke="none" fill="#F89B0D" fill-rule="evenodd" xlink:href="#path-5"></use>
                            <path d="M2.60548679,4 C2.39752751,8.20282061 2.93643872,11.6745715 4.22222041,14.4152526 C6.15089294,18.5262743 8.80251231,19.8558123 12.2517916,20.9296042 C14.5513111,21.6454654 17.4673806,22.2732996 21,22.8131066 C10.326535,30.6365856 2.43350468,31.0403283 -2.67909109,24.0243345 C-3.43080711,22.9927577 -4.02640907,21.961181 -4.46589696,20.9296042 C-6.16561137,16.9399928 -3.80848345,11.2967914 2.60548679,4 Z" id="Path-3" stroke="none" fill="#F3920F" fill-rule="evenodd" mask="url(#mask-6)"></path>
                        </g>
                    </g>
                    <g id="Path-4" mask="url(#mask-2)">
                        <g transform="translate(125.000000, 172.000000)">
                            <mask id="mask-8" fill="white">
                                <use xlink:href="#path-7"></use>
                            </mask>
                            <use id="Mask" stroke="none" fill="#F89B0D" fill-rule="evenodd" xlink:href="#path-7"></use>
                            <path d="M7.22414057,2 C5.52373907,8.72130959 5.10526403,13.6696252 5.96871546,16.8449468 C7.26389261,21.6079292 9.35364846,25.8147075 18.10557,27.7181772 C23.9401843,28.9871569 29.9049943,26.1928379 36,19.33522 C22.4929325,45.6405231 11.3561963,52.4828219 2.5897915,39.8621164 C-6.17661333,27.2414109 -4.63183031,14.6207055 7.22414057,2 Z" id="Path-4" stroke="none" fill="#F3920F" fill-rule="evenodd" mask="url(#mask-8)"></path>
                        </g>
                    </g>
                    <g id="Path-6" mask="url(#mask-2)">
                        <g transform="translate(59.000000, 176.000000)">
                            <mask id="mask-10" fill="white">
                                <use xlink:href="#path-9"></use>
                            </mask>
                            <use id="Mask" stroke="none" fill="#F89B0D" fill-rule="evenodd" xlink:href="#path-9"></use>
                            <path d="M5.74294964,2 C3.63113714,9.25505628 3.84490846,14.2953304 6.38426358,17.1208225 C10.1932963,21.3590606 19.1058391,19.4493861 22.2372196,18.2851043 C24.3248066,17.5089165 25.6009818,16.7787359 26.0657452,16.0945626 C32.7490976,30.3360519 28.0154457,34.3722041 11.8647893,28.2030193 C-4.28586701,22.0338345 -6.32648024,13.2994948 5.74294964,2 Z" id="Path-6" stroke="none" fill="#F3920F" fill-rule="evenodd" mask="url(#mask-10)"></path>
                        </g>
                    </g>
                </g>
                <path d="M0.0675886913,63.5091672 C0.0675886913,139.44832 61.6284356,201.009167 137.567589,201.009167 C166.242836,201.009167 192.867909,192.231332 214.902389,177.216082 C192.886443,214.450329 152.328489,239.421531 105.938198,239.421531 C36.0741776,239.421531 -20.5618016,182.785552 -20.5618016,112.921531 C-20.5618016,86.1693416 -12.2574847,61.3567296 1.91397576,40.920868 C0.699351255,48.2709122 0.0675886913,55.8162617 0.0675886913,63.5091672 Z" fill-opacity="0.15" fill="#3E39B8" transform="translate(97.170294, 140.172056) rotate(9.000000) translate(-97.170294, -140.172056) "></path>
            </g>
        </g>
    </g>
</svg>