<?xml version="1.0" encoding="UTF-8"?>
<svg width="209px" height="223px" viewBox="0 0 209 223" version="1.1" xmlns="http://www.w3.org/2000/svg" xmlns:xlink="http://www.w3.org/1999/xlink">
    <title>bulan hepi</title>
    <defs>
        <circle id="path-1" cx="78" cy="78" r="78"></circle>
        <circle id="path-3" cx="19.3274336" cy="19.3274336" r="19.3274336"></circle>
        <circle id="path-5" cx="19.3274336" cy="19.3274336" r="19.3274336"></circle>
        <circle id="path-7" cx="16.9115044" cy="16.9115044" r="16.9115044"></circle>
        <circle id="path-9" cx="14.840708" cy="14.840708" r="14.840708"></circle>
        <circle id="path-11" cx="6.55752212" cy="6.55752212" r="6.55752212"></circle>
        <circle id="path-13" cx="6.55752212" cy="6.55752212" r="6.55752212"></circle>
        <circle id="path-15" cx="14.4955752" cy="14.4955752" r="14.4955752"></circle>
        <circle id="path-17" cx="10.3539823" cy="10.3539823" r="10.3539823"></circle>
        <circle id="path-19" cx="19.3274336" cy="19.3274336" r="19.3274336"></circle>
        <path d="M5.5570898,3.14760104 C5.5570898,3.14760104 -9.1450901,39.9006788 39.8381653,56.2819219 L49.449032,48.6585609 C44.6783645,-2.79124392 5.5570898,3.14760104 5.5570898,3.14760104" id="path-21"></path>
    </defs>
    <g id="Page-1" stroke="none" stroke-width="1" fill="none" fill-rule="evenodd">
        <g id="ilustration" transform="translate(-1090.000000, -367.000000)">
            <g id="bulan-hepi" transform="translate(1090.000000, 367.000000)">
                <g id="path" transform="translate(9.910335, 81.820335)" fill="#F2E5D7" fill-rule="nonzero">
                    <path d="M194.667523,118.548196 C194.874383,119.92209 194.987801,121.2281 195.008018,122.466141 L196.007885,122.449813 C195.986922,121.166075 195.869671,119.815934 195.656377,118.399309 L194.667523,118.548196 Z M194.722613,126.387054 C194.489212,127.725506 194.114471,128.960285 193.598808,130.092364 L194.508846,130.506887 C195.06054,129.295708 195.460034,127.979368 195.707747,126.558843 L194.722613,126.387054 Z M191.457438,133.378329 C190.621994,134.312763 189.637696,135.143862 188.503308,135.87184 L189.043398,136.713448 C190.252568,135.937479 191.306156,135.047874 192.202928,134.044845 L191.457438,133.378329 Z M185.048992,137.596659 C183.895823,138.039902 182.641552,138.413603 181.286131,138.717458 L181.504879,139.69324 C182.906669,139.37899 184.207649,138.991372 185.407771,138.530082 L185.048992,137.596659 Z M177.296732,139.377543 C176.046185,139.519809 174.729394,139.615861 173.346409,139.665624 L173.382368,140.664977 C174.790536,140.614308 176.132985,140.516385 177.409766,140.371135 L177.296732,139.377543 Z M169.51394,139.688822 C168.23757,139.661319 166.913461,139.60027 165.541639,139.505656 L165.472833,140.503286 C166.860112,140.598966 168.199957,140.66074 169.492397,140.68859 L169.51394,139.688822 Z M161.55379,139.150629 C160.272473,139.012425 158.954554,138.84841 157.600046,138.658579 L157.461255,139.6489 C158.826108,139.840182 160.154536,140.005504 161.446551,140.144862 L161.55379,139.150629 Z M153.659432,138.023999 C152.335715,137.772691 151.046059,137.484962 149.788381,137.16125 L149.539117,138.129686 C150.817639,138.458762 152.12822,138.75116 153.472913,139.00645 L153.659432,138.023999 Z M145.973259,136.037442 C144.703329,135.614005 143.467106,135.150313 142.261254,134.646531 L141.875763,135.569243 C143.104329,136.082514 144.363627,136.554861 145.656946,136.986097 L145.973259,136.037442 Z M138.662431,132.979851 C137.483923,132.378512 136.333505,131.73487 135.205673,131.047946 L134.685495,131.902004 C135.834566,132.601864 137.006875,133.257753 138.207925,133.870595 L138.662431,132.979851 Z M131.883253,128.855462 C130.819848,128.098572 129.77156,127.298697 128.728019,126.450833 L128.097432,127.226952 C129.157129,128.087943 130.222283,128.900687 131.303378,129.670168 L131.883253,128.855462 Z M125.715846,123.862284 C124.769527,123.00598 123.815381,122.103762 122.823214,121.130777 L122.123043,121.844752 C123.124364,122.826714 124.088147,123.738045 125.044884,124.603776 L125.715846,123.862284 Z M119.99931,118.283312 L117.23325,115.399451 L116.509807,116.089836 L119.281429,118.979478 L119.99931,118.283312 Z M114.45976,112.514383 L113.60197,111.640318 L112.786752,110.822592 C112.387886,110.426024 112.000709,110.046557 111.618811,109.67815 L110.924531,110.397854 L111.305018,110.766869 L112.082584,111.532627 L112.891691,112.344239 L113.743644,113.212364 L114.45976,112.514383 Z M108.661043,106.960629 C107.604671,106.043196 106.56457,105.201077 105.520917,104.422796 L104.923111,105.224436 C105.946133,105.987333 106.96706,106.813928 108.005333,107.715642 L108.661043,106.960629 Z M102.165462,102.151631 C100.997033,101.441148 99.8095814,100.802342 98.5928184,100.233318 L98.1691991,101.139158 C99.3525535,101.692558 100.508038,102.314167 101.645907,103.006068 L102.165462,102.151631 Z M94.7968085,98.7187368 C93.5301605,98.2967226 92.2272082,97.9423741 90.8820067,97.6562982 L90.6739945,98.6344245 C91.9826612,98.9127307 93.24953,99.257266 94.4807168,99.6674654 L94.7968085,98.7187368 Z M86.8388575,97.0169398 C85.5336639,96.8779082 84.1889992,96.7963558 82.8014441,96.7732308 L82.7847804,97.773092 C84.1427836,97.7957244 85.4576741,97.8754711 86.732935,98.0113141 L86.8388575,97.0169398 Z M78.7767137,96.8634844 C77.4752435,96.9409099 76.1376073,97.0648496 74.7617873,97.2360913 L74.8852995,98.2284343 C76.2400606,98.0598138 77.5563239,97.9378543 78.8360995,97.8617195 L78.7767137,96.8634844 Z M70.8091678,97.7803211 C69.498044,97.9459672 68.1778344,98.0857138 66.8511213,98.1993697 L66.9364759,99.1957203 C68.2765101,99.0809233 69.6100516,98.9397655 70.9345104,98.7724346 L70.8091678,97.7803211 Z M62.8755031,98.4608849 C61.5517718,98.5218295 60.2255698,98.5569464 58.8995271,98.5661961 L58.9065024,99.5661718 C60.2455498,99.5568314 61.5847596,99.5213701 62.9214944,99.4598267 L62.8755031,98.4608849 Z M54.9004343,98.5155267 C53.569675,98.4724377 52.2431377,98.4031824 50.9235023,98.3078801 L50.8514713,99.3052825 C52.1843381,99.4015403 53.5241008,99.4714861 54.868072,99.5150029 L54.9004343,98.5155267 Z M46.9656541,97.9414271 C45.6380435,97.791073 44.3217605,97.6139614 43.0195097,97.4103789 L42.8650544,98.3983786 C44.1812955,98.6041483 45.5115553,98.7831405 46.8531218,98.9350751 L46.9656541,97.9414271 Z M39.0834837,96.7055454 C37.7703925,96.4397385 36.4765738,96.1462606 35.2047379,95.8255754 L34.9602466,96.7952269 C36.2474604,97.1197895 37.5566443,97.4167527 38.8850795,97.6856657 L39.0834837,96.7055454 Z M31.4000364,94.7646495 C30.115231,94.3706468 28.8589795,93.947617 27.6339922,93.4962153 L27.2882257,94.4345359 C28.5307293,94.8923923 29.8045114,95.3213253 31.1068494,95.7207046 L31.4000364,94.7646495 Z M23.9410326,92.0073126 C22.7094556,91.4654136 21.5177211,90.8927403 20.3685152,90.2901562 L19.9041339,91.1757916 C21.0737731,91.7890898 22.2860634,92.3716409 23.5382908,92.9226262 L23.9410326,92.0073126 Z M16.9006281,88.2993332 C15.7608193,87.5831265 14.6749157,86.8339789 13.6455442,86.0529747 L13.0411078,86.849628 C14.0941722,87.6486086 15.2042339,88.4144224 16.3685867,89.1460516 L16.9006281,88.2993332 Z M10.6251666,83.5186324 C9.64352199,82.6052111 8.73194669,81.6569182 7.89288864,80.6749987 L7.13264314,81.3246346 C7.99676842,82.3358893 8.93475493,83.3116573 9.94395736,84.2507211 L10.6251666,83.5186324 Z M5.53498774,77.5372172 C4.80940108,76.4287231 4.16805285,75.2851218 3.61302055,74.1075927 L2.70846868,74.5339563 C3.28343643,75.7537794 3.94749773,76.9378809 4.69829552,78.0848905 L5.53498774,77.5372172 Z M2.18658666,70.4008401 C1.80968416,69.1551411 1.52145006,67.8774651 1.32348508,66.5687054 L0.334732463,66.7182656 C0.539859284,68.0743727 0.83865125,69.3988493 1.22943822,70.6904378 L2.18658666,70.4008401 Z M1.00253414,62.590995 C0.985985237,61.3051182 1.05045173,59.9933338 1.19702482,58.6562836 L0.202979934,58.5473122 C0.0520057375,59.9245096 -0.0144598155,61.2769715 0.00261694604,62.6038637 L1.00253414,62.590995 Z M1.83572445,54.7883548 C2.11017486,53.5351512 2.45264104,52.2623933 2.86378586,50.9705235 L1.9108804,50.667256 C1.49047879,51.9882118 1.13999696,53.2907595 0.858875254,54.5744257 L1.83572445,54.7883548 Z M4.21832266,47.2465428 C4.70456501,46.055282 5.24641735,44.8494626 5.84427546,43.629373 L4.94628929,43.1893493 C4.33854994,44.4296042 3.78739529,45.6561247 3.29247867,46.8686368 L4.21832266,47.2465428 Z M7.6941263,40.124404 C8.32969268,38.9992502 9.01098664,37.8630391 9.73825697,36.7159582 L8.89369952,36.1804933 C8.15743929,37.3417534 7.46742703,38.4925042 6.82343417,39.6325756 L7.6941263,40.124404 Z M11.9444969,33.4048763 C12.2642542,32.9468706 12.5910967,32.487258 12.9250376,32.0260486 L12.1150635,31.4395829 C11.7777725,31.9054191 11.4476068,32.3697051 11.1245535,32.8324316 L11.9444969,33.4048763 Z" id="Path-11"></path>
                    <path d="M61.7250581,56.9925953 C61.0033399,58.5580104 60.3419238,60.0974025 59.7408242,61.6107912 L60.6701993,61.9799278 C61.2645666,60.4834894 61.918892,58.9606002 62.6331898,57.4112798 L61.7250581,56.9925953 Z M58.028429,66.3487761 C57.493723,67.9976375 57.0361335,69.6133673 56.655704,71.1959884 L57.6280076,71.4297101 C58.0022847,69.8726831 58.4528217,68.2818553 58.9796619,66.6572495 L58.028429,66.3487761 Z M55.7000961,76.1590364 C55.4548033,77.8808964 55.3096481,79.559921 55.2647336,81.1960807 L56.2643571,81.2235215 C56.3082113,79.6259843 56.4500914,77.9848438 56.6901008,76.3000705 L55.7000961,76.1590364 Z M55.4606696,86.2613291 C55.6474006,87.9785216 55.9580764,89.6424929 56.3927644,91.2530172 L57.3582166,90.9924372 C56.9371483,89.432374 56.63599,87.8193784 56.4548091,86.1532244 L55.4606696,86.2613291 Z M58.1374413,96.0737351 C58.8428814,97.6047907 59.6773922,99.0793193 60.6407872,100.49711 L61.4679043,99.9350804 C60.5353209,98.5626339 59.7279721,97.1360988 59.0456716,95.6552643 L58.1374413,96.0737351 Z M63.779675,104.432105 C64.8979003,105.640041 66.1256639,106.799313 67.4628192,107.909945 L68.1017589,107.140688 C66.7977076,106.057552 65.6016725,104.928239 64.5135065,103.752774 L63.779675,104.432105 Z M71.5509629,110.931192 C72.9112967,111.828678 74.3565042,112.688483 75.8865527,113.510664 L76.3598973,112.629787 C74.8559007,111.821605 73.4364999,110.977153 72.1016624,110.096488 L71.5509629,110.931192 Z M80.4421257,115.734105 C81.9548462,116.399046 83.5209714,117.010529 85.135742,117.567319 L85.4617179,116.621941 C83.8725594,116.073983 82.3319299,115.472454 80.8445317,114.818644 L80.4421257,115.734105 Z M89.9679978,119.032104 C91.568831,119.454194 93.2060038,119.826284 94.8747921,120.147611 L95.0638698,119.165649 C93.417032,118.848549 91.8018282,118.481451 90.2229531,118.065151 L89.9679978,119.032104 Z M99.8520852,120.943316 C101.499452,121.154608 103.169007,121.318645 104.856162,121.435092 L104.925018,120.437466 C103.257271,120.322358 101.607176,120.160233 99.9793038,119.951441 L99.8520852,120.943316 Z M109.909205,121.640617 C111.576738,121.661957 113.254314,121.638085 114.937547,121.569042 L114.896564,120.569883 C113.231204,120.638192 111.571561,120.661809 109.922001,120.640699 L109.909205,121.640617 Z M119.922061,121.233749 C121.587073,121.078142 123.25131,120.878933 124.910664,120.636483 L124.766088,119.646989 C123.123853,119.886938 121.476797,120.08409 119.829009,120.238088 L119.922061,121.233749 Z M129.893013,119.77517 C131.538157,119.446254 133.172398,119.07486 134.791946,118.661611 L134.544704,117.692657 C132.942154,118.101569 131.324982,118.469084 129.696962,118.794576 L129.893013,119.77517 Z M139.6581,117.279571 C141.265296,116.775612 142.851753,116.229862 144.414005,115.643149 L144.062426,114.706991 C142.517536,115.287183 140.948546,115.826924 139.3589,116.325381 L139.6581,117.279571 Z M149.080379,113.736308 C150.623444,113.052738 152.136044,112.327938 153.615069,111.562883 L153.155626,110.674676 C151.694574,111.430434 150.20012,112.146538 148.675347,112.822005 L149.080379,113.736308 Z M157.962131,109.139641 C159.412572,108.269657 160.822779,107.358833 162.189983,106.408241 L161.619123,105.587193 C160.270455,106.524898 158.87909,107.423552 157.447757,108.282075 L157.962131,109.139641 Z M166.240966,103.372805 C167.557455,102.309814 168.824069,101.206613 170.038396,100.064311 L169.35322,99.3359333 C168.15737,100.460854 166.909759,101.547503 165.612746,102.594769 L166.240966,103.372805 Z M173.590211,96.4460801 C174.724608,95.1927463 175.8004,93.9004218 176.815538,92.5701967 L176.020577,91.9635362 C175.02248,93.2714315 173.964562,94.5422844 172.848801,95.7750274 L173.590211,96.4460801 Z M179.723678,88.3931216 C180.624135,86.9696902 181.459635,85.5096204 182.228515,84.0139148 L181.339146,83.5567263 C180.583911,85.0258861 179.763189,86.4601299 178.878578,87.8585146 L179.723678,88.3931216 Z M184.337166,79.4121172 C184.965454,77.8594017 185.5262,76.2736574 186.018128,74.6557353 L185.061375,74.3648347 C184.578116,75.9542439 184.027304,77.5118963 183.410179,79.037023 L184.337166,79.4121172 Z M187.269483,69.7854881 C187.613836,68.1563792 187.892135,66.4986936 188.103453,64.8130951 L187.11122,64.688702 C186.903361,66.3467078 186.629678,67.9768984 186.291101,69.5786828 L187.269483,69.7854881 Z M188.603864,59.7850461 C188.732293,58.0785448 188.814696,56.406273 188.851696,54.768065 L187.851951,54.745485 C187.815349,56.366054 187.733808,58.020835 187.606684,59.7099995 L188.603864,59.7850461 Z M188.818896,49.7237321 C188.755802,48.0080637 188.639057,46.3340317 188.46958,44.7014283 L187.474925,44.804681 C187.64209,46.4150164 187.757289,48.0668724 187.819572,49.7604824 L188.818896,49.7237321 Z M187.764701,39.7086882 C187.459563,38.0175777 187.092683,36.3772859 186.66547,34.7875692 L185.699734,35.0470964 C186.119636,36.6096072 186.4804,38.2225561 186.780593,39.8862573 L187.764701,39.7086882 Z M185.137159,29.9885301 C184.539761,28.3799211 183.873954,26.8326729 183.14196,25.3465339 L182.244874,25.7883909 C182.961791,27.2439198 183.614138,28.7598866 184.199718,30.336673 L185.137159,29.9885301 Z M180.649,20.913088 C179.731032,19.4743108 178.743318,18.1070364 177.689398,16.8110683 L176.913561,17.4420021 C177.943377,18.7083296 178.908649,20.0445377 179.805971,21.4509564 L180.649,20.913088 Z M174.265347,13.0719991 C173.048769,11.8911665 171.770218,10.7896908 170.435405,9.76757824 L169.827439,10.5615419 C171.131505,11.5601098 172.380483,12.6361082 173.568861,13.7895692 L174.265347,13.0719991 Z M166.241995,6.92454868 C164.788678,6.05623486 163.292225,5.27422776 161.762882,4.57903739 L161.349062,5.48939617 C162.844752,6.16928891 164.30812,6.93400702 165.729097,7.78299825 L166.241995,6.92454868 Z M157.054219,2.74498353 C155.422517,2.21114462 153.785392,1.7775276 152.167021,1.44522238 L151.965885,2.42478553 C153.54727,2.74949646 155.14773,3.1734022 156.743271,3.69541039 L157.054219,2.74498353 Z M147.118634,0.734934759 C146.32185,0.676959019 145.548058,0.648171874 144.80443,0.648171874 L144.80443,1.64817187 C145.523547,1.64817187 146.273148,1.67605903 147.046064,1.73229806 L147.118634,0.734934759 Z" id="Path-12" transform="translate(122.058215, 61.148172) rotate(-1.000000) translate(-122.058215, -61.148172) "></path>
                </g>
                <g id="Path-13">
                    <g id="Mask">
                        <path d="M163.341318,117.557844 C161.402823,107.55851 156.209674,101.525994 152.044292,98.1683725 C147.191747,94.2558437 142.735521,93.0494778 142.548399,93 L142,94.9904522 C142.0424,95.0017909 146.274361,96.1607405 150.784551,99.8214133 C156.255579,104.262736 159.758676,110.28735 161.232171,117.744417 C159.544923,118.325781 158.333188,119.89739 158.333188,121.750747 C158.333188,124.097508 160.273085,126 162.666419,126 C165.059753,126 167,124.097508 167,121.750747 C167,119.629728 165.413321,117.876357 163.341318,117.557844" id="Fill-6" fill="#FFAC0E"></path>
                        <g id="Path-5-+-Path-2-+-Path-3-+-Path-4-+-Path-6-Mask">
                            <mask id="mask-2" fill="white">
                                <use xlink:href="#path-1"></use>
                            </mask>
                            <use id="Mask" fill="#FFAC0E" xlink:href="#path-1"></use>
                            <g id="Path-5" mask="url(#mask-2)">
                                <g transform="translate(33.132743, -2.761062)">
                                    <mask id="mask-4" fill="white">
                                        <use xlink:href="#path-3"></use>
                                    </mask>
                                    <use id="Mask" stroke="none" fill="#F89B0D" fill-rule="evenodd" xlink:href="#path-3"></use>
                                    <path d="M-4.12821049,23.8055677 C-7.9014455,13.9060346 -3.71967054,6.8253155 8.41711437,2.56341032 C6.15478602,11.3320445 5.58920394,17.2153653 6.72036811,20.2133727 C8.41711437,24.7103838 11.7353121,31.2719001 25.1950897,31.2719001 C34.1682747,31.2719001 39.4689269,29.5003713 41.0970463,25.9573138 C30.7376283,47.1688633 19.8443176,53.7022661 8.41711437,45.5575221 C-8.7236905,33.3404062 1.53164202,38.6548673 -4.12821049,23.8055677 Z" id="Path-5" stroke="none" fill="#F3920F" fill-rule="evenodd" mask="url(#mask-4)"></path>
                                </g>
                            </g>
                            <g id="Path-5" mask="url(#mask-2)">
                                <g transform="translate(33.132743, -2.761062)">
                                    <mask id="mask-6" fill="white">
                                        <use xlink:href="#path-5"></use>
                                    </mask>
                                    <use id="Mask" stroke="none" fill="#F89B0D" fill-rule="evenodd" xlink:href="#path-5"></use>
                                    <path d="M-4.12821049,23.8055677 C-7.9014455,13.9060346 -3.71967054,6.8253155 8.41711437,2.56341032 C6.15478602,11.3320445 5.58920394,17.2153653 6.72036811,20.2133727 C8.41711437,24.7103838 11.7353121,31.2719001 25.1950897,31.2719001 C34.1682747,31.2719001 39.4689269,29.5003713 41.0970463,25.9573138 C30.7376283,47.1688633 19.8443176,53.7022661 8.41711437,45.5575221 C-8.7236905,33.3404062 1.53164202,38.6548673 -4.12821049,23.8055677 Z" id="Path-5" stroke="none" fill="#F3920F" fill-rule="evenodd" mask="url(#mask-6)"></path>
                                </g>
                            </g>
                            <g id="Path-2" mask="url(#mask-2)">
                                <g transform="translate(112.513274, 19.327434)">
                                    <mask id="mask-8" fill="white">
                                        <use xlink:href="#path-7"></use>
                                    </mask>
                                    <use id="Mask" stroke="none" fill="#F89B0D" fill-rule="evenodd" xlink:href="#path-7"></use>
                                    <path d="M11.0442478,0 C8.28318584,4.07980498 6.90265487,7.9183403 6.90265487,11.515606 C6.90265487,16.9115044 9.54442612,23.9886585 15.3850481,26.920354 C19.2787962,28.8748177 24.2743406,29.8641611 30.3716814,29.8883844 C21.5652789,42.1369033 10.7415058,42.1369033 -2.09963803,29.8883844 C-14.9407818,17.6398654 -10.5594866,7.67707063 11.0442478,0 Z" id="Path-2" stroke="none" fill="#F3920F" fill-rule="evenodd" mask="url(#mask-8)"></path>
                                </g>
                            </g>
                            <g id="Path-3" mask="url(#mask-2)">
                                <g transform="translate(12.424779, 63.504425)">
                                    <mask id="mask-10" fill="white">
                                        <use xlink:href="#path-9"></use>
                                    </mask>
                                    <use id="Mask" stroke="none" fill="#F89B0D" fill-rule="evenodd" xlink:href="#path-9"></use>
                                    <path d="M3.56407714,4.83185841 C3.31563022,9.70564259 3.95946219,13.7316447 5.49557306,16.9098646 C7.79973936,21.6771946 10.9676032,23.218988 15.0884236,24.4642065 C17.8356372,25.2943521 21.319437,26.0224175 25.539823,26.6484025 C12.7883383,35.7208689 3.35861179,36.1890674 -2.74935661,28.0529981 C-3.64742443,26.8567343 -4.35898429,25.6604704 -4.8840362,24.4642065 C-6.91466845,19.8376696 -4.09863068,13.2935535 3.56407714,4.83185841 Z" id="Path-3" stroke="none" fill="#F3920F" fill-rule="evenodd" mask="url(#mask-10)"></path>
                                </g>
                            </g>
                            <g id="Path-3" mask="url(#mask-2)">
                                <g transform="translate(73.858407, 30.371681)">
                                    <mask id="mask-12" fill="white">
                                        <use xlink:href="#path-11"></use>
                                    </mask>
                                    <use id="Mask" stroke="none" fill="#F89B0D" fill-rule="evenodd" xlink:href="#path-11"></use>
                                    <path d="M1.96751511,2.76106195 C1.85709426,4.96586908 2.1432418,6.78715573 2.82595774,8.22492191 C3.85003165,10.3815712 5.25797114,11.0790492 7.08944687,11.6423623 C8.3104307,12.0179043 9.85878616,12.3472672 11.7345133,12.630451 C6.06718675,16.7346619 1.87619718,16.946466 -0.838455444,13.2658633 C-1.2375967,12.7246963 -1.55384553,12.1835293 -1.78720193,11.6423623 C-2.68970515,9.54940509 -1.43813281,6.58897165 1.96751511,2.76106195 Z" id="Path-3" stroke="none" fill="#F3920F" fill-rule="evenodd" mask="url(#mask-12)"></path>
                                </g>
                            </g>
                            <g id="Path-3" mask="url(#mask-2)">
                                <g transform="translate(124.938053, 106.991150)">
                                    <mask id="mask-14" fill="white">
                                        <use xlink:href="#path-13"></use>
                                    </mask>
                                    <use id="Mask" stroke="none" fill="#F89B0D" fill-rule="evenodd" xlink:href="#path-13"></use>
                                    <path d="M1.96751511,1.38053097 C1.85709426,3.58533811 2.1432418,5.40662476 2.82595774,6.84439094 C3.85003165,9.00104021 5.25797114,9.69851819 7.08944687,10.2618313 C8.3104307,10.6373734 9.85878616,10.9667363 11.7345133,11.24992 C6.06718675,15.3541309 1.87619718,15.565935 -0.838455444,11.8853323 C-1.2375967,11.3441653 -1.55384553,10.8029983 -1.78720193,10.2618313 C-2.68970515,8.16887412 -1.43813281,5.20844068 1.96751511,1.38053097 Z" id="Path-3" stroke="none" fill="#F3920F" fill-rule="evenodd" mask="url(#mask-14)"></path>
                                </g>
                            </g>
                            <g id="Path-4" mask="url(#mask-2)">
                                <g transform="translate(138.053097, 78.000000)">
                                    <mask id="mask-16" fill="white">
                                        <use xlink:href="#path-15"></use>
                                    </mask>
                                    <use id="Mask" stroke="none" fill="#F89B0D" fill-rule="evenodd" xlink:href="#path-15"></use>
                                    <path d="M6.3688121,1.50740796 C4.85947391,7.3880281 4.48802025,11.7174172 5.25445114,14.4955752 C6.40409747,18.6628123 8.25904074,22.3434142 16.0275645,24.0088013 C21.2065804,25.1190593 26.5011626,22.6742487 31.9113113,16.6743695 C19.921947,39.689452 10.036575,45.6759283 2.25519536,34.6337982 C-5.52618432,23.5916681 -4.15497874,12.549538 6.3688121,1.50740796 Z" id="Path-4" stroke="none" fill="#F3920F" fill-rule="evenodd" mask="url(#mask-16)"></path>
                                </g>
                            </g>
                            <g id="Path-4" mask="url(#mask-2)">
                                <g transform="translate(53.150442, 53.150442)">
                                    <mask id="mask-18" fill="white">
                                        <use xlink:href="#path-17"></use>
                                    </mask>
                                    <use id="Mask" stroke="none" fill="#F89B0D" fill-rule="evenodd" xlink:href="#path-17"></use>
                                    <path d="M4.44370018,0.690265487 C3.36025852,4.90798188 3.09361956,8.01311959 3.6437833,10.0056786 C4.46902892,12.9945171 5.80055477,15.6343297 11.3770003,16.8287837 C15.0946307,17.6250864 18.8952176,15.8716119 22.7787611,11.5683601 C14.172488,28.0753081 7.07651447,32.3689469 1.4908406,24.4492766 C-4.09483327,16.5296062 -3.11054674,8.60993585 4.44370018,0.690265487 Z" id="Path-4" stroke="none" fill="#F3920F" fill-rule="evenodd" mask="url(#mask-18)"></path>
                                </g>
                            </g>
                            <g id="Path-6" mask="url(#mask-2)">
                                <g transform="translate(39.345133, 98.707965)">
                                    <mask id="mask-20" fill="white">
                                        <use xlink:href="#path-19"></use>
                                    </mask>
                                    <use id="Mask" stroke="none" fill="#F89B0D" fill-rule="evenodd" xlink:href="#path-19"></use>
                                    <path d="M8.30325673,0.690265487 C5.03728037,12.1455799 5.36788361,20.1038815 9.29506645,24.5651701 C15.1858407,31.257103 28.9693343,28.2418374 33.8121008,26.4035038 C37.0406118,25.177948 39.014252,24.0250351 39.7330215,22.9447651 C50.0690106,45.4312532 42.748287,51.8041042 17.7708509,42.0633181 C-7.20658523,32.322532 -10.36245,18.5315145 8.30325673,0.690265487 Z" id="Path-6" stroke="none" fill="#F3920F" fill-rule="evenodd" mask="url(#mask-20)"></path>
                                </g>
                            </g>
                        </g>
                        <path d="M93,94 C93,94 93.7301613,103.850881 100.500201,103.998394 C107.269839,104.146489 108,94 108,94 L93,94 Z" id="Fill-194" fill="#3E39B8"></path>
                        <path d="M86.0002329,85 C82.0033392,85 81.9965069,91 86.0002329,91 C89.9965055,91 90.0033378,85 86.0002329,85 Z" id="Fill-195" fill="#3E39B8"></path>
                        <path d="M116.000116,91 C119.996544,91 120.003377,85 116.000116,85 C112.003068,85 111.996856,91 116.000116,91" id="Fill-196" fill="#3E39B8"></path>
                        <path d="M116.747671,165.670086 C105.532319,159.168788 98.8880231,151.663361 96.9882733,143.330823 C94.7084357,133.329914 100.286278,125.572938 100.342842,125.495644 L99.5095462,124.882126 L98.6769398,124.267226 C98.423088,124.611252 92.4868873,132.819914 94.9626324,143.755594 C96.9837895,152.682672 103.958851,160.64634 115.705361,167.458883 C115.596026,167.83638 115.534287,168.234926 115.534287,168.647964 C115.534287,171.004732 117.444039,172.915336 119.799757,172.915336 C122.155474,172.915336 124.065226,171.004732 124.065226,168.647964 C124.065226,166.291196 122.155474,164.380592 119.799757,164.380592 C118.602583,164.380592 117.522333,164.87541 116.747671,165.670086 Z" id="Fill-5" fill="#FFAC0E" transform="translate(109.212616, 148.591281) rotate(-36.000000) translate(-109.212616, -148.591281) "></path>
                    </g>
                    <path d="M-3.1798461,33.9294087 C2.88837072,61.0745977 3.96123216,100.087068 44.051419,122.026305 C84.1416058,143.965542 150.246285,138.55242 176.859755,129.825654 C187.013529,126.496152 161.827985,141.908626 101.303126,176.063075 L-9.12398366,129.459881 C-9.20670317,47.6761069 -7.22532398,15.8326161 -3.1798461,33.9294087 Z" fill="#3E39B8" opacity="0.199079241" transform="translate(84.960670, 102.537101) rotate(11.000000) translate(-84.960670, -102.537101) "></path>
                </g>
                <g id="roket-wush" transform="translate(147.951250, 137.286390)">
                    <path d="M30.0108081,47.9805507 C26.6702064,55.3588911 27.5754229,60.0043654 32.7264575,61.9169737 C40.4530094,64.7858862 35.8575791,61.42441 35.8575791,58.4091408 C35.8575791,56.3989614 36.5968119,54.3386351 38.0752774,52.228162 L30.0108081,47.9805507 Z" id="Path-7" fill="#E94F37"></path>
                    <path d="M50.0200344,29.7136104 C46.6794328,37.0919508 47.5846492,41.7374252 52.7356839,43.6500335 C60.4622358,46.518946 55.8668055,43.1574698 55.8668055,40.1422006 C55.8668055,38.1320211 56.6060383,36.0716948 58.0845038,33.9612217 L50.0200344,29.7136104 Z" id="Path-7" fill="#E94F37" transform="translate(53.066627, 37.227184) scale(-1, 1) rotate(92.000000) translate(-53.066627, -37.227184) "></path>
                    <g id="Path-10">
                        <g id="Mask">
                            <mask id="mask-22" fill="white">
                                <use xlink:href="#path-21" transform="translate(26.468680, 29.610301) rotate(-8.000000) translate(-26.468680, -29.610301) "></use>
                            </mask>
                            <use fill="#F2E5D7" transform="translate(26.468680, 29.610301) rotate(-8.000000) translate(-26.468680, -29.610301) " xlink:href="#path-21"></use>
                            <path d="M17.0096649,45.4943962 C30.3197297,37.6549959 38.9787738,29.3216626 42.9867971,20.4943962" id="Path-9" stroke="#E94F37" stroke-width="5" mask="url(#mask-22)"></path>
                        </g>
                        <path d="M0.239411531,26.2647378 C-3.62432336,17.4021021 -3.70412721,12.7488201 -9.47686374e-13,12.3048918 C4.72270449,25.0179728 11.4056212,34.0433707 20.0487501,39.3810854 C28.6918791,44.7188 38.2146113,48.0790139 48.6169468,49.4617271 L38.5802036,61.7386661 C16.8834104,46.9520163 4.10314642,35.1273735 0.239411531,26.2647378 Z" fill="#3E39B8" opacity="0.303172771"></path>
                    </g>
                    <circle id="Oval" stroke="#E94F37" stroke-width="3" fill="#FFFAF5" cx="18.0487501" cy="21.7136104" r="6.5"></circle>
                    <path d="M40.5204076,41.9560283 C42.6485441,40.0398456 45.8076222,40.0789608 47.5764062,42.0433944 C47.6754959,42.1534446 47.7681201,42.2672026 47.8543182,42.3842444 L47.8702154,42.3697026 C53.9394101,50.5480241 56.0470438,55.4718266 54.1931167,57.1411101 C51.4122261,59.6450353 40.494736,49.6766312 40.1635517,49.3088137 L40.1800347,49.2948512 C40.0725157,49.1967954 39.9689426,49.0926784 39.8697425,48.9825056 C38.1009585,47.0180719 38.3922712,43.8722109 40.5204076,41.9560283 Z" id="Combined-Shape" fill="#E94F37"></path>
                </g>
                <g id="hati" transform="translate(144.000000, 41.640852)" fill="#E94F37">
                    <path d="M14.1514297,10.3591482 C12.3771235,10.3591482 10.8054094,11.208913 9.807456,12.5190922 C8.80900235,11.208913 7.23778847,10.3591482 5.46348232,10.3591482 C2.44611139,10.3591482 0,12.8063507 0,15.825568 C0,20.346637 5.42846641,25.0563757 9.21868849,26.8660044 C9.59235827,27.0446652 10.0225537,27.0446652 10.3962235,26.8660044 C14.1859454,25.0563757 19.614912,20.346637 19.614912,15.825568 C19.614912,12.8063507 17.1688006,10.3591482 14.1514297,10.3591482" id="Fill-142"></path>
                    <path d="M25.5040296,0 C24.4377945,0 23.4933031,0.510649815 22.8936022,1.2979768 C22.2936006,0.510649815 21.3494099,0 20.2831747,0 C18.4699436,0 17,1.47059929 17,3.28493989 C17,6.00178938 20.2621325,8.83201636 22.5397936,9.91947792 C22.7643433,10.0268407 23.022861,10.0268407 23.2474107,9.91947792 C25.5247712,8.83201636 28.7872043,6.00178938 28.7872043,3.28493989 C28.7872043,1.47059929 27.3172607,0 25.5040296,0" id="Fill-142"></path>
                    <path d="M28.6616828,22.0465181 C27.8816808,21.022993 26.6542328,20.3591482 25.2681271,20.3591482 C22.9109267,20.3591482 21,22.2709273 21,24.6295701 C21,28.1614744 25.2407723,31.8407695 28.2017317,33.2544695 C28.4936463,33.3940411 28.8297193,33.3940411 29.1216339,33.2544695 C32.0822025,31.8407695 36.3233656,28.1614744 36.3233656,24.6295701 C36.3233656,22.2709273 34.4124389,20.3591482 32.0552385,20.3591482 C30.6691328,20.3591482 29.441294,21.022993 28.6616828,22.0465181 Z" id="Fill-142"></path>
                </g>
            </g>
        </g>
    </g>
</svg>